<svg width="64" height="64" viewBox="0 0 64 64" fill="none" xmlns="http://www.w3.org/2000/svg">
<path d="M17.3967 39.1274H16.8097V39.7143V44.3549V44.9419H17.3967H22.0351H22.6221V44.3549V39.7143V39.1274H22.0351H17.3967ZM23.1349 38.6138V45.4554H16.2969V38.6138H23.1349Z" fill="#87BCC0" stroke="#87BCC0" stroke-width="1.17394"/>
<path d="M17.3967 26.4711H16.8097V27.0581V31.6987V32.2856H17.3967H22.0351H22.6221V31.6987V27.0581V26.4711H22.0351H17.3967ZM23.1349 25.9576V32.7992H16.2969V25.9576H23.1349Z" fill="#87BCC0" stroke="#87BCC0" stroke-width="1.17394"/>
<path d="M17.3967 13.8149H16.8097V14.4019V19.0425V19.6295H17.3967H22.0351H22.6221V19.0425V14.4019V13.8149H22.0351H17.3967ZM23.1349 13.3014V20.143H16.2969V13.3014H23.1349Z" fill="#87BCC0" stroke="#87BCC0" stroke-width="1.17394"/>
<rect x="8.99785" y="5.99785" width="40.4131" height="52.0043" stroke="#87BCC0" stroke-width="1.99571"/>
<path d="M50.4137 19.6356C50.4961 19.5569 50.6063 19.5142 50.7201 19.5168C50.8339 19.5195 50.9421 19.5673 51.0207 19.6496C51.0993 19.7321 51.142 19.8424 51.1394 19.9564C51.1367 20.0703 51.0889 20.1786 51.0065 20.2572L51.0065 20.2572L45.7055 25.3197L45.7055 25.3197C45.6256 25.396 45.5194 25.4385 45.4091 25.4385C45.2987 25.4385 45.1925 25.396 45.1126 25.3197L42.462 22.7885L42.461 22.7875C42.4199 22.7487 42.3868 22.702 42.3638 22.6503C42.3407 22.5986 42.3281 22.5429 42.3266 22.4862C42.3252 22.4296 42.3349 22.3733 42.3553 22.3205C42.3756 22.2676 42.4062 22.2194 42.4453 22.1784C42.4844 22.1375 42.5311 22.1047 42.5829 22.0819C42.6346 22.0591 42.6904 22.0467 42.7469 22.0455C42.8035 22.0444 42.8597 22.0544 42.9123 22.075C42.965 22.0956 43.0131 22.1265 43.0538 22.1657L43.0549 22.1667L45.2063 24.2214L45.409 24.4149L45.6117 24.2214L50.4137 19.6356ZM50.4137 19.6356L50.211 19.4233L50.4137 19.6356ZM51.4454 19.2445L51.4454 19.2445C51.2593 19.0494 51.0032 18.9363 50.7338 18.93C50.4642 18.9238 50.2033 19.0249 50.0083 19.211L50.0083 19.211L45.409 23.6033L43.4613 21.7432C43.4611 21.7431 43.4609 21.7429 43.4607 21.7427C43.3645 21.65 43.2509 21.5772 43.1264 21.5284C43.0017 21.4796 42.8686 21.4559 42.7347 21.4587C42.6008 21.4615 42.4688 21.4907 42.3463 21.5447C42.2237 21.5987 42.113 21.6763 42.0206 21.7732C41.9282 21.8701 41.8558 21.9843 41.8076 22.1093C41.7594 22.2342 41.7364 22.3675 41.7398 22.5014C41.7433 22.6352 41.7731 22.7671 41.8277 22.8894C41.8821 23.0115 41.9601 23.1216 42.0572 23.2135C42.0574 23.2137 42.0575 23.2139 42.0577 23.2141L44.7073 25.7442L44.7073 25.7443C44.8964 25.9248 45.1477 26.0255 45.4091 26.0255C45.6705 26.0255 45.9218 25.9247 46.1109 25.7441L51.4119 20.6817C51.6069 20.4956 51.7199 20.2396 51.7262 19.9701C51.7325 19.7006 51.6315 19.4396 51.4454 19.2445ZM54.9795 22.1164V22.116C54.9795 20.4846 54.4959 18.8898 53.59 17.5334C52.684 16.1769 51.3963 15.1196 49.8897 14.4952C48.383 13.8709 46.7252 13.7075 45.1258 14.0258C43.5263 14.3441 42.0572 15.1298 40.9041 16.2834C39.751 17.437 38.9657 18.9068 38.6476 20.5068C38.3295 22.1069 38.4928 23.7654 39.1168 25.2726C39.7408 26.7799 40.7976 28.0682 42.1535 28.9746C43.5094 29.881 45.1036 30.3647 46.7343 30.3647H46.7347C48.9206 30.3623 51.0163 29.4924 52.5619 27.9461C54.1076 26.3997 54.977 24.3032 54.9795 22.1164ZM53.1018 17.8594C53.9433 19.1192 54.3924 20.6004 54.3925 22.1157C54.3902 24.1472 53.5826 26.0947 52.1468 27.5311C50.711 28.9675 48.7644 29.7755 46.734 29.7778C45.2195 29.7777 43.739 29.3284 42.4797 28.4866C41.2204 27.6447 40.2388 26.4481 39.6591 25.0481C39.0795 23.6481 38.9278 22.1075 39.2233 20.6213C39.5188 19.135 40.2482 17.7698 41.3192 16.6983C42.3903 15.6268 43.7548 14.8971 45.2403 14.6015C46.7258 14.3059 48.2656 14.4576 49.6649 15.0375C51.0643 15.6174 52.2603 16.5994 53.1018 17.8594ZM55.8383 22.1164C55.8382 23.9177 55.3043 25.6786 54.3039 27.1763C53.3036 28.6741 51.8817 29.8415 50.2182 30.5309C48.5547 31.2202 46.7242 31.4006 44.9583 31.0492C43.1923 30.6977 41.5701 29.8303 40.2969 28.5565C39.0237 27.2827 38.1566 25.6598 37.8053 23.893C37.4541 22.1261 37.6343 20.2948 38.3234 18.6305C39.0125 16.9662 40.1794 15.5437 41.6765 14.5429C43.1736 13.5421 44.9337 13.0079 46.7342 13.0079C49.1478 13.0107 51.4619 13.9712 53.1686 15.6787C54.8754 17.3863 55.8355 19.7015 55.8383 22.1164Z" fill="#F7F2E6" stroke="#87BCC0" stroke-width="0.586972"/>
<path d="M44.9226 24.5185L45.409 24.9831L45.8955 24.5185L50.6975 19.9327C50.701 19.9293 50.7057 19.9275 50.7105 19.9276C50.7154 19.9277 50.7201 19.9298 50.7235 19.9333C50.7269 19.9369 50.7287 19.9417 50.7286 19.9468C50.7285 19.9519 50.7264 19.9567 50.7228 19.9601L50.7228 19.9601L45.4217 25.0225L45.4217 25.0225C45.4182 25.0258 45.4137 25.0276 45.409 25.0276C45.4044 25.0276 45.3998 25.0258 45.3964 25.0225L42.7458 22.4914L42.7458 22.4914L42.7433 22.489C42.7415 22.4873 42.74 22.4852 42.739 22.4829C42.738 22.4807 42.7374 22.4782 42.7374 22.4757C42.7373 22.4731 42.7377 22.4706 42.7386 22.4683C42.7395 22.4659 42.7409 22.4638 42.7426 22.462C42.7443 22.4603 42.7463 22.4589 42.7485 22.4579C42.7507 22.4569 42.7531 22.4564 42.7555 22.4563C42.7579 22.4563 42.7603 22.4567 42.7625 22.4576L42.7625 22.4576C42.7648 22.4585 42.7668 22.4598 42.7686 22.4615L42.7711 22.4639L44.9226 24.5185ZM55.3904 22.1168V22.116C55.3904 20.4034 54.8827 18.7292 53.9316 17.3052C52.9805 15.8811 51.6287 14.7711 50.047 14.1157C48.4652 13.4602 46.7247 13.2887 45.0456 13.6229C43.3664 13.957 41.824 14.7818 40.6135 15.9929C39.4029 17.204 38.5786 18.747 38.2446 20.4267C37.9106 22.1064 38.0821 23.8475 38.7372 25.4298C39.3923 27.0121 40.5017 28.3646 41.9252 29.3161C43.3487 30.2677 45.0223 30.7756 46.7343 30.7756H46.7351C49.0299 30.773 51.23 29.8598 52.8525 28.2365C54.4751 26.6132 55.3878 24.4124 55.3904 22.1168ZM55.4274 22.1168C55.4272 23.8368 54.9174 25.5181 53.9623 26.9481C53.007 28.3784 51.6493 29.4931 50.0609 30.1513C48.4725 30.8095 46.7247 30.9818 45.0385 30.6462C43.3522 30.3106 41.8033 29.4824 40.5875 28.266C39.3718 27.0497 38.5438 25.5 38.2083 23.8129C37.8729 22.1257 38.0451 20.3769 38.703 18.7876C39.361 17.1984 40.4753 15.8401 41.9049 14.8845C43.3343 13.9289 45.0148 13.4189 46.734 13.4188C49.0387 13.4215 51.2482 14.3387 52.878 15.9692C54.5079 17.5998 55.4248 19.8107 55.4274 22.1168Z" stroke="#87BCC0" stroke-width="1.40873"/>
</svg>
