<svg width="64" height="64" viewBox="0 0 64 64" fill="none" xmlns="http://www.w3.org/2000/svg">
<mask id="path-1-inside-1_801_2847" fill="white">
<path d="M52.526 25.1996L47.8566 17.2182C47.3167 16.2926 46.5163 15.5413 45.5526 15.0553C44.5888 14.5694 43.5029 14.3697 42.4265 14.4804C41.35 14.5911 40.3292 15.0075 39.4876 15.6791C38.6461 16.3506 38.0199 17.2486 37.6849 18.2643L32.7648 9.85386C32.2232 8.92685 31.4205 8.17494 30.4543 7.68941C29.488 7.20388 28.3997 7.00561 27.3215 7.11867C26.2433 7.23173 25.2215 7.65125 24.3802 8.32632C23.5389 9.00138 22.9143 9.90295 22.5821 10.9216C21.7652 9.74127 20.5167 8.91919 19.0987 8.62789C17.6807 8.33659 16.2035 8.59872 14.9771 9.35926C13.7508 10.1198 12.8706 11.3196 12.5214 12.7068C12.1723 14.0941 12.3812 15.5609 13.1044 16.7993L14.7541 19.6191C13.6953 19.3989 12.5946 19.4862 11.5851 19.8704C10.5755 20.2545 9.70038 20.9191 9.06546 21.7837C8.43053 22.6483 8.06304 23.676 8.00741 24.7424C7.95178 25.8088 8.2104 26.8682 8.752 27.7927L18.5578 44.5541C19.8432 46.7597 21.5566 48.6935 23.6001 50.2449C25.6435 51.7963 27.9769 52.9349 30.4666 53.5955C32.9564 54.256 35.5537 54.4256 38.11 54.0946C40.6662 53.7635 43.1313 52.9383 45.364 51.6661C47.5968 50.3939 49.5535 48.6998 51.1221 46.6805C52.6908 44.6613 53.8406 42.3567 54.5058 39.8984C55.171 37.4402 55.3385 34.8767 54.9988 32.3545C54.6591 29.8323 53.8188 27.401 52.526 25.1996ZM52.6811 39.409C51.7728 42.7545 49.8798 45.759 47.2412 48.0427C44.6027 50.3264 41.3372 51.7866 37.8577 52.2386C34.3783 52.6907 30.8411 52.1143 27.6936 50.5824C24.546 49.0505 21.9295 46.6319 20.1748 43.6324L10.369 26.871C9.87366 26.0242 9.73943 25.0179 9.99588 24.0735C10.2523 23.129 10.8784 22.3238 11.7365 21.8349C12.5945 21.3461 13.6142 21.2136 14.5712 21.4667C15.5282 21.7198 16.3441 22.3377 16.8394 23.1845L21.9758 31.9645C22.0046 32.0124 22.0377 32.0577 22.0748 32.0997C22.0837 32.1101 22.0926 32.12 22.1019 32.1299C22.1378 32.1688 22.177 32.2047 22.2191 32.237L22.2217 32.2393C22.2648 32.2708 22.3107 32.2984 22.3587 32.322C22.3706 32.328 22.3825 32.3336 22.3947 32.3391C22.4402 32.3602 22.4873 32.3776 22.5357 32.3912L22.5448 32.3939C22.596 32.407 22.6483 32.4157 22.701 32.42C22.7143 32.4211 22.7274 32.4218 22.7407 32.4223C22.7558 32.4232 22.7706 32.4253 22.7855 32.4253C22.8216 32.425 22.8576 32.4227 22.8934 32.4184C22.8962 32.4184 22.899 32.4184 22.9015 32.4179C22.9554 32.4108 23.0085 32.399 23.0603 32.3826L23.0977 32.3702C23.2274 32.3261 23.3455 32.2541 23.4435 32.1593C23.5416 32.0646 23.617 31.9496 23.6645 31.8225C23.7119 31.6955 23.7301 31.5596 23.7178 31.4248C23.7055 31.2899 23.663 31.1594 23.5933 31.0428L18.4569 22.2628V22.2624L14.7214 15.8777C14.226 15.0309 14.0918 14.0247 14.3482 13.0802C14.6046 12.1358 15.2307 11.3306 16.0887 10.8417C16.9467 10.3529 17.9664 10.2204 18.9233 10.4735C19.8803 10.7265 20.6962 11.3444 21.1916 12.1911L29.1296 25.76C29.1905 25.8656 29.2719 25.9584 29.3693 26.0328C29.4666 26.1073 29.5779 26.162 29.6968 26.1939C29.8156 26.2257 29.9397 26.2341 30.0618 26.2184C30.184 26.2027 30.3018 26.1634 30.4084 26.1026C30.5151 26.0418 30.6085 25.9608 30.6833 25.8643C30.7581 25.7677 30.8128 25.6575 30.8443 25.54C30.8758 25.4225 30.8834 25.3 30.8667 25.1796C30.8501 25.0592 30.8094 24.9432 30.7471 24.8383L24.6769 14.4621C24.1815 13.6153 24.0473 12.609 24.3037 11.6645C24.5602 10.7201 25.1863 9.91485 26.0443 9.42599C26.9023 8.93712 27.922 8.80465 28.879 9.05774C29.836 9.31082 30.6519 9.92872 31.1473 10.7755L38.1507 22.7469L38.1514 22.7481L40.04 25.9761C37.9464 27.435 36.4808 29.6133 35.931 32.0837C35.3811 34.5541 35.7866 37.1381 37.0679 39.3286C37.1281 39.4355 37.2093 39.5294 37.3067 39.605C37.4041 39.6806 37.5157 39.7364 37.6351 39.7689C37.7546 39.8015 37.8794 39.8104 38.0023 39.7949C38.1252 39.7794 38.2438 39.7399 38.3511 39.6788C38.4584 39.6176 38.5523 39.536 38.6273 39.4387C38.7023 39.3414 38.757 39.2303 38.7881 39.1119C38.8191 38.9936 38.8261 38.8703 38.8084 38.7492C38.7907 38.6282 38.7488 38.5118 38.6851 38.4069C38.1333 37.4636 37.7751 36.4222 37.631 35.3422C37.487 34.2622 37.5599 33.1648 37.8456 32.1127C38.1313 31.0605 38.6242 30.0742 39.2961 29.21C39.9681 28.3458 40.8059 27.6207 41.7618 27.0761C41.8156 27.0453 41.8661 27.0094 41.9127 26.9687C41.9391 26.9441 41.9641 26.9179 41.9874 26.8904C42.0035 26.8722 42.0222 26.8563 42.0369 26.8374C42.0618 26.8033 42.0843 26.7676 42.1043 26.7305C42.1132 26.7148 42.1246 26.7005 42.1326 26.6844C42.1863 26.5765 42.2182 26.4594 42.2264 26.3395C42.2278 26.3199 42.2248 26.3007 42.2248 26.2812C42.2263 26.2406 42.2249 26.2001 42.2208 26.1597C42.2178 26.1376 42.2103 26.1166 42.2059 26.0948C42.1995 26.0574 42.1908 26.0205 42.1797 25.9842C42.16 25.9261 42.1345 25.8702 42.1036 25.8171L39.7687 21.8257C39.2842 20.9796 39.1578 19.9789 39.4171 19.0413C39.6765 18.1037 40.3004 17.3051 41.1534 16.8192C42.0063 16.3333 43.0191 16.1995 43.9715 16.4468C44.9239 16.6941 45.7388 17.3026 46.2389 18.1399L50.9083 26.1213C52.0794 28.1104 52.839 30.309 53.1433 32.5899C53.4476 34.8707 53.2905 37.1885 52.6811 39.409ZM21.624 56.6033C21.5541 56.7028 21.4651 56.7878 21.3619 56.8533C21.2588 56.9189 21.1436 56.9637 21.0229 56.9853C20.9022 57.0068 20.7783 57.0047 20.6585 56.979C20.5386 56.9534 20.425 56.9046 20.3242 56.8356C17.0424 54.5936 14.3084 51.6576 12.3213 48.2413C12.1994 48.0297 12.1673 47.7792 12.2319 47.5443C12.2965 47.3094 12.4526 47.1093 12.6662 46.9876C12.8798 46.8659 13.1334 46.8325 13.3719 46.8948C13.6103 46.957 13.8141 47.1097 13.9388 47.3197C15.7884 50.5002 18.3335 53.2336 21.3886 55.3209C21.5922 55.4602 21.7313 55.6735 21.7754 55.914C21.8196 56.1545 21.7651 56.4025 21.624 56.6033ZM42.0805 7.92072C42.0808 7.67644 42.1793 7.44226 42.3544 7.26962C42.5295 7.09697 42.7669 7 43.0144 7H43.0153C45.309 7.00524 47.5613 7.60378 49.5475 8.73593C51.5337 9.86807 53.1844 11.4943 54.3352 13.4524C54.3989 13.5573 54.4408 13.6736 54.4585 13.7947C54.4761 13.9157 54.4692 14.039 54.4381 14.1574C54.407 14.2758 54.3524 14.3868 54.2773 14.4841C54.2023 14.5815 54.1084 14.6631 54.0011 14.7242C53.8938 14.7854 53.7752 14.8248 53.6523 14.8403C53.5294 14.8558 53.4046 14.847 53.2852 14.8144C53.1658 14.7818 53.0541 14.7261 52.9567 14.6505C52.8593 14.5749 52.7782 14.4809 52.7179 14.374C51.7314 12.6954 50.3161 11.3014 48.6134 10.331C46.9106 9.36055 44.9798 8.84759 43.0135 8.84328C42.8908 8.84316 42.7694 8.8192 42.6562 8.77277C42.5429 8.72634 42.44 8.65835 42.3534 8.57269C42.2668 8.48702 42.1981 8.38535 42.1512 8.27348C42.1044 8.16162 42.0804 8.04175 42.0805 7.92072Z"/>
</mask>
<path d="M52.526 25.1996L47.8566 17.2182C47.3167 16.2926 46.5163 15.5413 45.5526 15.0553C44.5888 14.5694 43.5029 14.3697 42.4265 14.4804C41.35 14.5911 40.3292 15.0075 39.4876 15.6791C38.6461 16.3506 38.0199 17.2486 37.6849 18.2643L32.7648 9.85386C32.2232 8.92685 31.4205 8.17494 30.4543 7.68941C29.488 7.20388 28.3997 7.00561 27.3215 7.11867C26.2433 7.23173 25.2215 7.65125 24.3802 8.32632C23.5389 9.00138 22.9143 9.90295 22.5821 10.9216C21.7652 9.74127 20.5167 8.91919 19.0987 8.62789C17.6807 8.33659 16.2035 8.59872 14.9771 9.35926C13.7508 10.1198 12.8706 11.3196 12.5214 12.7068C12.1723 14.0941 12.3812 15.5609 13.1044 16.7993L14.7541 19.6191C13.6953 19.3989 12.5946 19.4862 11.5851 19.8704C10.5755 20.2545 9.70038 20.9191 9.06546 21.7837C8.43053 22.6483 8.06304 23.676 8.00741 24.7424C7.95178 25.8088 8.2104 26.8682 8.752 27.7927L18.5578 44.5541C19.8432 46.7597 21.5566 48.6935 23.6001 50.2449C25.6435 51.7963 27.9769 52.9349 30.4666 53.5955C32.9564 54.256 35.5537 54.4256 38.11 54.0946C40.6662 53.7635 43.1313 52.9383 45.364 51.6661C47.5968 50.3939 49.5535 48.6998 51.1221 46.6805C52.6908 44.6613 53.8406 42.3567 54.5058 39.8984C55.171 37.4402 55.3385 34.8767 54.9988 32.3545C54.6591 29.8323 53.8188 27.401 52.526 25.1996ZM52.6811 39.409C51.7728 42.7545 49.8798 45.759 47.2412 48.0427C44.6027 50.3264 41.3372 51.7866 37.8577 52.2386C34.3783 52.6907 30.8411 52.1143 27.6936 50.5824C24.546 49.0505 21.9295 46.6319 20.1748 43.6324L10.369 26.871C9.87366 26.0242 9.73943 25.0179 9.99588 24.0735C10.2523 23.129 10.8784 22.3238 11.7365 21.8349C12.5945 21.3461 13.6142 21.2136 14.5712 21.4667C15.5282 21.7198 16.3441 22.3377 16.8394 23.1845L21.9758 31.9645C22.0046 32.0124 22.0377 32.0577 22.0748 32.0997C22.0837 32.1101 22.0926 32.12 22.1019 32.1299C22.1378 32.1688 22.177 32.2047 22.2191 32.237L22.2217 32.2393C22.2648 32.2708 22.3107 32.2984 22.3587 32.322C22.3706 32.328 22.3825 32.3336 22.3947 32.3391C22.4402 32.3602 22.4873 32.3776 22.5357 32.3912L22.5448 32.3939C22.596 32.407 22.6483 32.4157 22.701 32.42C22.7143 32.4211 22.7274 32.4218 22.7407 32.4223C22.7558 32.4232 22.7706 32.4253 22.7855 32.4253C22.8216 32.425 22.8576 32.4227 22.8934 32.4184C22.8962 32.4184 22.899 32.4184 22.9015 32.4179C22.9554 32.4108 23.0085 32.399 23.0603 32.3826L23.0977 32.3702C23.2274 32.3261 23.3455 32.2541 23.4435 32.1593C23.5416 32.0646 23.617 31.9496 23.6645 31.8225C23.7119 31.6955 23.7301 31.5596 23.7178 31.4248C23.7055 31.2899 23.663 31.1594 23.5933 31.0428L18.4569 22.2628V22.2624L14.7214 15.8777C14.226 15.0309 14.0918 14.0247 14.3482 13.0802C14.6046 12.1358 15.2307 11.3306 16.0887 10.8417C16.9467 10.3529 17.9664 10.2204 18.9233 10.4735C19.8803 10.7265 20.6962 11.3444 21.1916 12.1911L29.1296 25.76C29.1905 25.8656 29.2719 25.9584 29.3693 26.0328C29.4666 26.1073 29.5779 26.162 29.6968 26.1939C29.8156 26.2257 29.9397 26.2341 30.0618 26.2184C30.184 26.2027 30.3018 26.1634 30.4084 26.1026C30.5151 26.0418 30.6085 25.9608 30.6833 25.8643C30.7581 25.7677 30.8128 25.6575 30.8443 25.54C30.8758 25.4225 30.8834 25.3 30.8667 25.1796C30.8501 25.0592 30.8094 24.9432 30.7471 24.8383L24.6769 14.4621C24.1815 13.6153 24.0473 12.609 24.3037 11.6645C24.5602 10.7201 25.1863 9.91485 26.0443 9.42599C26.9023 8.93712 27.922 8.80465 28.879 9.05774C29.836 9.31082 30.6519 9.92872 31.1473 10.7755L38.1507 22.7469L38.1514 22.7481L40.04 25.9761C37.9464 27.435 36.4808 29.6133 35.931 32.0837C35.3811 34.5541 35.7866 37.1381 37.0679 39.3286C37.1281 39.4355 37.2093 39.5294 37.3067 39.605C37.4041 39.6806 37.5157 39.7364 37.6351 39.7689C37.7546 39.8015 37.8794 39.8104 38.0023 39.7949C38.1252 39.7794 38.2438 39.7399 38.3511 39.6788C38.4584 39.6176 38.5523 39.536 38.6273 39.4387C38.7023 39.3414 38.757 39.2303 38.7881 39.1119C38.8191 38.9936 38.8261 38.8703 38.8084 38.7492C38.7907 38.6282 38.7488 38.5118 38.6851 38.4069C38.1333 37.4636 37.7751 36.4222 37.631 35.3422C37.487 34.2622 37.5599 33.1648 37.8456 32.1127C38.1313 31.0605 38.6242 30.0742 39.2961 29.21C39.9681 28.3458 40.8059 27.6207 41.7618 27.0761C41.8156 27.0453 41.8661 27.0094 41.9127 26.9687C41.9391 26.9441 41.9641 26.9179 41.9874 26.8904C42.0035 26.8722 42.0222 26.8563 42.0369 26.8374C42.0618 26.8033 42.0843 26.7676 42.1043 26.7305C42.1132 26.7148 42.1246 26.7005 42.1326 26.6844C42.1863 26.5765 42.2182 26.4594 42.2264 26.3395C42.2278 26.3199 42.2248 26.3007 42.2248 26.2812C42.2263 26.2406 42.2249 26.2001 42.2208 26.1597C42.2178 26.1376 42.2103 26.1166 42.2059 26.0948C42.1995 26.0574 42.1908 26.0205 42.1797 25.9842C42.16 25.9261 42.1345 25.8702 42.1036 25.8171L39.7687 21.8257C39.2842 20.9796 39.1578 19.9789 39.4171 19.0413C39.6765 18.1037 40.3004 17.3051 41.1534 16.8192C42.0063 16.3333 43.0191 16.1995 43.9715 16.4468C44.9239 16.6941 45.7388 17.3026 46.2389 18.1399L50.9083 26.1213C52.0794 28.1104 52.839 30.309 53.1433 32.5899C53.4476 34.8707 53.2905 37.1885 52.6811 39.409ZM21.624 56.6033C21.5541 56.7028 21.4651 56.7878 21.3619 56.8533C21.2588 56.9189 21.1436 56.9637 21.0229 56.9853C20.9022 57.0068 20.7783 57.0047 20.6585 56.979C20.5386 56.9534 20.425 56.9046 20.3242 56.8356C17.0424 54.5936 14.3084 51.6576 12.3213 48.2413C12.1994 48.0297 12.1673 47.7792 12.2319 47.5443C12.2965 47.3094 12.4526 47.1093 12.6662 46.9876C12.8798 46.8659 13.1334 46.8325 13.3719 46.8948C13.6103 46.957 13.8141 47.1097 13.9388 47.3197C15.7884 50.5002 18.3335 53.2336 21.3886 55.3209C21.5922 55.4602 21.7313 55.6735 21.7754 55.914C21.8196 56.1545 21.7651 56.4025 21.624 56.6033ZM42.0805 7.92072C42.0808 7.67644 42.1793 7.44226 42.3544 7.26962C42.5295 7.09697 42.7669 7 43.0144 7H43.0153C45.309 7.00524 47.5613 7.60378 49.5475 8.73593C51.5337 9.86807 53.1844 11.4943 54.3352 13.4524C54.3989 13.5573 54.4408 13.6736 54.4585 13.7947C54.4761 13.9157 54.4692 14.039 54.4381 14.1574C54.407 14.2758 54.3524 14.3868 54.2773 14.4841C54.2023 14.5815 54.1084 14.6631 54.0011 14.7242C53.8938 14.7854 53.7752 14.8248 53.6523 14.8403C53.5294 14.8558 53.4046 14.847 53.2852 14.8144C53.1658 14.7818 53.0541 14.7261 52.9567 14.6505C52.8593 14.5749 52.7782 14.4809 52.7179 14.374C51.7314 12.6954 50.3161 11.3014 48.6134 10.331C46.9106 9.36055 44.9798 8.84759 43.0135 8.84328C42.8908 8.84316 42.7694 8.8192 42.6562 8.77277C42.5429 8.72634 42.44 8.65835 42.3534 8.57269C42.2668 8.48702 42.1981 8.38535 42.1512 8.27348C42.1044 8.16162 42.0804 8.04175 42.0805 7.92072Z" fill="#87BCC0" stroke="#87BCC0" stroke-width="0.117925" mask="url(#path-1-inside-1_801_2847)"/>
</svg>
