<svg width="64" height="64" viewBox="0 0 64 64" fill="none" xmlns="http://www.w3.org/2000/svg">
<path d="M58.4879 41.8975V42.1708L58.7512 42.2439L61.9467 43.1313V48.804L61.5432 48.9548C52.3915 52.0627 42.7476 53.6405 33.1531 53.6405C23.5571 53.6405 13.9137 52.1102 4.76384 48.9552L4.35945 48.804V43.1313L7.55502 42.2439L7.81829 42.1708V41.8975V37.8154C7.81829 28.4024 13.4158 19.7377 22.1882 15.6167L22.3948 15.5196V15.2914V14.2828C22.3948 12.6179 23.756 11.2805 25.4942 11.2805H32.1648H32.5243V10.921V9.35945H33.7819V10.921V11.2805H34.1413H40.812C42.5502 11.2805 43.9113 12.6179 43.9113 14.2828V15.2914V15.5196L44.118 15.6167C52.8907 19.7379 58.4879 28.3547 58.4879 37.8154V41.8975ZM5.8803 44.0005L5.61703 44.0736V44.3468V47.7086V47.9682L5.86344 48.0499C23.4781 53.8853 42.8281 53.8853 60.4427 48.0499L60.6891 47.9682V47.7086V44.2988V44.0256L60.4259 43.9525L57.2303 43.0651V37.8154C57.2303 29.1276 52.2592 21.1789 44.4359 17.1332L43.9113 16.862V17.4525V25.9298H42.6538V14.2828C42.6538 13.2583 41.8408 12.4826 40.812 12.4826H34.1413H33.7819V12.842V32.6534H32.5243V12.842V12.4826H32.1648H25.4942C24.4654 12.4826 23.6524 13.2583 23.6524 14.2828V25.9298H22.3948V17.4525V16.862L21.8703 17.1332C14.0469 21.1789 9.07587 29.1276 9.07587 37.8154V43.1131L5.8803 44.0005Z" fill="#87BCC0" stroke="#87BCC0" stroke-width="0.718901"/>
<path d="M16.2178 43.219V42.0168H50.0874V43.219H16.2178Z" fill="#87BCC0" stroke="#87BCC0" stroke-width="0.718901"/>
</svg>
