<svg width="64" height="64" viewBox="0 0 64 64" fill="none" xmlns="http://www.w3.org/2000/svg">
<g clip-path="url(#clip0_804_2901)">
<path d="M36.1216 46.866C34.8111 47.2161 33.5005 47.3912 32.1027 47.3912C23.7155 47.3912 16.8135 40.4763 16.8135 32.0734C16.8135 23.6705 23.7155 16.7556 32.1027 16.7556C40.4899 16.7556 47.3919 23.6705 47.3919 32.0734C47.3919 33.1238 47.3045 34.1741 47.0424 35.2245" stroke="#F7F2E6" stroke-width="1.9" stroke-miterlimit="10"/>
<path d="M53.5075 40.9138C54.119 39.4258 54.818 36.4498 54.818 36.4498H63.0305V27.6968H54.818C54.6432 23.933 51.3233 19.0312 51.3233 19.0312L57.0895 13.2543L50.8865 7.03959L45.1202 12.8166L45.0329 12.9041C42.674 11.1535 39.6161 9.92811 36.4709 9.40292V9.22785V1H27.7342V9.22785V9.40292C23.3659 9.92811 19.0849 12.9917 19.0849 12.9917L13.3187 7.21466L7.11568 13.4293L12.8819 19.2063C12.8819 19.2063 10.4356 22.0948 9.38721 27.7843H9.21248H1V36.5373H9.21248V36.6249C9.82404 39.776 10.9598 42.6645 12.7945 45.2029L7.02831 50.9798L13.2314 57.1945L18.9976 51.4175C21.7933 53.2556 24.3269 54.306 27.7342 54.8312V63.0591H36.4709V54.8312C38.4804 54.4811 40.053 54.0435 42.0624 52.9931" stroke="#F7F2E6" stroke-width="1.9" stroke-miterlimit="10"/>
<path d="M25.2002 28.0469L30.7043 33.5614" stroke="#F7F2E6" stroke-width="1.9" stroke-miterlimit="10"/>
<path d="M25.5497 27.7842C24.2392 28.9221 24.0645 30.2351 24.0645 31.6355C24.0645 35.837 27.5591 39.3382 31.7527 39.3382C32.539 39.3382 33.238 39.2507 34.0243 38.9881L56.3028 61.1334C57.4386 62.2713 59.1859 62.2713 60.2343 61.1334L62.1564 59.2952C63.2922 58.1573 63.2922 56.3192 62.1564 55.0937L39.6157 32.6859L39.441 32.5984C39.441 32.3358 39.5284 31.9856 39.5284 31.7231C39.5284 27.5216 36.3832 23.9329 32.1022 23.9329C30.7043 23.9329 29.0444 24.458 27.9086 25.6835" stroke="#F7F2E6" stroke-width="1.9" stroke-miterlimit="10"/>
<path d="M30.7054 33.5613C31.0549 33.9115 31.5791 34.1741 32.1033 34.1741C33.239 34.1741 34.2001 33.2112 34.2001 32.0733C34.2001 31.4606 33.938 30.9354 33.5011 30.5853L27.9971 25.1583" stroke="#F7F2E6" stroke-width="1.9" stroke-miterlimit="10"/>
</g>
<defs>
<clipPath id="clip0_804_2901">
<rect width="64" height="64" fill="white"/>
</clipPath>
</defs>
</svg>
