<svg width="64" height="64" viewBox="0 0 64 64" fill="none" xmlns="http://www.w3.org/2000/svg">
<path d="M48.6519 45.0062H15.5215V63.0286H48.6519V45.0062Z" stroke="#F7F2E6" stroke-width="1.9" stroke-miterlimit="10"/>
<path d="M4.74023 36.7823V63.0286H15.5229" stroke="#F7F2E6" stroke-width="1.9" stroke-miterlimit="10"/>
<path d="M59.4349 36.4325V63.0286H48.6523" stroke="#F7F2E6" stroke-width="1.9" stroke-miterlimit="10"/>
<path d="M15.5215 44.0437V29.9583" stroke="#F7F2E6" stroke-width="1.9" stroke-miterlimit="10"/>
<path d="M48.6523 44.0438V31.2706" stroke="#F7F2E6" stroke-width="1.9" stroke-miterlimit="10"/>
<path d="M55.7828 37.7447C59.7689 37.7447 63.0002 34.4936 63.0002 30.4833C63.0002 26.4729 59.7689 23.2219 55.7828 23.2219C51.7968 23.2219 48.5654 26.4729 48.5654 30.4833C48.5654 34.4936 51.7968 37.7447 55.7828 37.7447Z" stroke="#F7F2E6" stroke-width="1.9" stroke-miterlimit="10"/>
<path d="M8.30434 37.6571C12.3384 37.6571 15.6087 34.3669 15.6087 30.3082C15.6087 26.2495 12.3384 22.9592 8.30434 22.9592C4.27026 22.9592 1 26.2495 1 30.3082C1 34.3669 4.27026 37.6571 8.30434 37.6571Z" stroke="#F7F2E6" stroke-width="1.9" stroke-miterlimit="10"/>
<path d="M44.7389 35.3826H19.4345C17.2606 35.3826 15.5215 37.1323 15.5215 39.3195V45.0061H48.6519V39.3195C48.6519 37.2198 46.9128 35.3826 44.7389 35.3826Z" stroke="#F7F2E6" stroke-width="1.9" stroke-miterlimit="10"/>
<path d="M7.52148 23.0469C7.52148 10.8861 18.478 1 32.0432 1C45.6085 1 56.565 10.8861 56.565 23.0469" stroke="#F7F2E6" stroke-width="1.9" stroke-miterlimit="10"/>
</svg>
