<svg width="64" height="64" viewBox="0 0 64 64" fill="none" xmlns="http://www.w3.org/2000/svg">
<path d="M37.1954 45.9237V5.90396C37.1954 3.18927 35.0246 1 32.3329 1C29.6412 1 27.4704 3.18927 27.4704 5.90396V45.9237C24.8655 47.5876 23.1289 50.4774 23.1289 53.8051C23.1289 58.8842 27.2099 63 32.2461 63C37.2822 63 41.3632 58.8842 41.3632 53.8051C41.45 50.3898 39.7134 47.5 37.1954 45.9237Z" stroke="#F7F2E6" stroke-width="1.8" stroke-miterlimit="10"/>
<path d="M32.3311 58.8841C35.1125 58.8841 37.3672 56.6102 37.3672 53.8051C37.3672 51 35.1125 48.726 32.3311 48.726C29.5497 48.726 27.2949 51 27.2949 53.8051C27.2949 56.6102 29.5497 58.8841 32.3311 58.8841Z" stroke="#F7F2E6" stroke-width="1.8" stroke-miterlimit="10"/>
<path d="M32.333 48.726V13.5226" stroke="#F7F2E6" stroke-width="1.8" stroke-miterlimit="10"/>
<path d="M22.0869 36.9916H27.5572" stroke="#F7F2E6" stroke-width="1.8" stroke-miterlimit="10"/>
<path d="M22.0869 23.856H27.5572" stroke="#F7F2E6" stroke-width="1.8" stroke-miterlimit="10"/>
<path d="M22 10.8956H27.4703" stroke="#F7F2E6" stroke-width="1.8" stroke-miterlimit="10"/>
</svg>
