<svg width="64" height="64" viewBox="0 0 64 64" fill="none" xmlns="http://www.w3.org/2000/svg">
<g clip-path="url(#clip0_804_2899)">
<path d="M53.7861 10.3085L25 39.5" stroke="#F7F2E6" stroke-width="1.9" stroke-miterlimit="10"/>
<path d="M7.98366 61.9207L2 55.6581V53.6762C2 53.6762 21.1315 35.7135 21.9293 35L29 42.9002L10.3771 62L7.98366 61.9207Z" stroke="#F7F2E6" stroke-width="1.9" stroke-miterlimit="10"/>
<path d="M52.1602 8.683L59.4719 2L61.9994 4.52871L55.2293 11.8439L52.1602 8.683Z" stroke="#F7F2E6" stroke-width="1.9" stroke-miterlimit="10"/>
<path d="M63 53.5L30 17.5L22.5 24.5L55.5116 60.3394L58.0672 61L63 56.5V53.5Z" stroke="#F7F2E6" stroke-width="1.9" stroke-miterlimit="10"/>
<path d="M5.87444 16.7976L1 20.9519L7.409 28.8088L12.2834 24.6546L5.87444 16.7976Z" stroke="#F7F2E6" stroke-width="1.9" stroke-miterlimit="10"/>
<path d="M6.4082 16.4429L11.734 11.9274C12.7269 9.03752 14.9837 6.77978 17.2403 4.61235C26.7185 -3.78641 41.2516 6.05731 41.2516 6.05731C35.5647 5.87669 31.1416 7.7732 28.5238 10.7534C28.5238 10.7534 26.3574 12.5596 28.9752 16.2623L30.1486 17.7072M12.8172 24.2998C12.8172 24.2998 17.3306 19.7843 21.6635 23.3064L22.4759 24.2998" stroke="#F7F2E6" stroke-width="1.9" stroke-miterlimit="10"/>
</g>
<defs>
<clipPath id="clip0_804_2899">
<rect width="64" height="64" fill="white"/>
</clipPath>
</defs>
</svg>
