<svg width="64" height="64" viewBox="0 0 64 64" fill="none" xmlns="http://www.w3.org/2000/svg">
<path d="M60.2864 42.9066C60.2864 54.0175 50.8307 63.0286 39.0987 63.0286C27.3668 63.0286 17.9111 54.0175 17.9111 42.9066" stroke="#F7F2E6" stroke-width="1.8" stroke-miterlimit="10"/>
<path d="M48.9037 42.9066C48.9037 48.0683 44.5261 52.1802 39.0978 52.1802C33.6696 52.1802 29.292 48.0683 29.292 42.9066" stroke="#F7F2E6" stroke-width="1.8" stroke-miterlimit="10"/>
<path d="M7.66797 27.2462C13.0962 27.2462 17.4738 31.3581 17.4738 36.5199" stroke="#F7F2E6" stroke-width="1.8" stroke-miterlimit="10"/>
<path d="M7.66797 16.3977C19.4 16.3977 28.8557 25.409 28.8557 36.52" stroke="#F7F2E6" stroke-width="1.8" stroke-miterlimit="10"/>
<path d="M31.657 36.5198H14.6719V42.9065H31.657V36.5198Z" stroke="#F7F2E6" stroke-width="1.8" stroke-miterlimit="10"/>
<path d="M7.74121 30.124L7.74121 13.9387L0.999694 13.9387L0.999694 30.124H7.74121Z" stroke="#F7F2E6" stroke-width="1.8" stroke-miterlimit="10"/>
<path d="M62.9998 36.5198H46.0146V42.9065H62.9998V36.5198Z" stroke="#F7F2E6" stroke-width="1.8" stroke-miterlimit="10"/>
<path d="M62.9998 1H46.0146V7.38675H62.9998V1Z" stroke="#F7F2E6" stroke-width="1.8" stroke-miterlimit="10"/>
<path d="M48.9062 36.52V7.38678" stroke="#F7F2E6" stroke-width="1.8" stroke-miterlimit="10"/>
<path d="M60.2871 36.52V7.38678" stroke="#F7F2E6" stroke-width="1.8" stroke-miterlimit="10"/>
</svg>
