<svg width="64" height="64" viewBox="0 0 64 64" fill="none" xmlns="http://www.w3.org/2000/svg">
<path d="M12.0737 11.6873V12.1873H12.5737H59.4548V57.5526H11.6712C7.87069 57.5526 4.77664 54.6494 4.51756 50.9737H5.3246C5.58106 54.2293 8.32149 56.7693 11.6712 56.7693H58.1498H58.6498V56.2693V13.4706V12.9706H58.1498H12.5737H12.0737V13.4706V44.178H11.6712C8.32149 44.178 5.58106 46.7181 5.3246 49.9737H4.5V12.5789C4.5 8.67007 7.69991 5.5 11.6712 5.5H12.0737V11.6873ZM10.8245 43.4362L11.2687 43.3863V42.9393V42.9246V42.9098V42.8949V42.8798V42.8647V42.8494V42.834V42.8184V42.8028V42.787V42.7711V42.7551V42.739V42.7227V42.7064V42.6899V42.6733V42.6566V42.6397V42.6228V42.6057V42.5885V42.5712V42.5538V42.5363V42.5186V42.5009V42.483V42.465V42.4469V42.4287V42.4103V42.3919V42.3733V42.3546V42.3358V42.3169V42.2979V42.2788V42.2596V42.2402V42.2207V42.2012V42.1815V42.1617V42.1418V42.1218V42.1016V42.0814V42.061V42.0406V42.02V41.9993V41.9786V41.9577V41.9367V41.9156V41.8943V41.873V41.8516V41.83V41.8084V41.7866V41.7648V41.7428V41.7207V41.6986V41.6763V41.6539V41.6314V41.6088V41.5861V41.5633V41.5404V41.5173V41.4942V41.471V41.4477V41.4242V41.4007V41.3771V41.3533V41.3295V41.3056V41.2815V41.2574V41.2331V41.2088V41.1843V41.1598V41.1351V41.1104V41.0855V41.0606V41.0356V41.0104V40.9852V40.9598V40.9344V40.9089V40.8832V40.8575V40.8317V40.8057V40.7797V40.7536V40.7274V40.7011V40.6747V40.6482V40.6216V40.5949V40.5681V40.5412V40.5142V40.4871V40.46V40.4327V40.4054V40.3779V40.3504V40.3228V40.295V40.2672V40.2393V40.2113V40.1832V40.155V40.1268V40.0984V40.0699V40.0414V40.0128V39.984V39.9552V39.9263V39.8973V39.8682V39.8391V39.8098V39.7804V39.751V39.7215V39.6919V39.6622V39.6324V39.6025V39.5726V39.5425V39.5124V39.4822V39.4519V39.4215V39.391V39.3604V39.3298V39.2991V39.2683V39.2374V39.2064V39.1753V39.1442V39.1129V39.0816V39.0502V39.0188V38.9872V38.9556V38.9238V38.892V38.8602V38.8282V38.7961V38.764V38.7318V38.6995V38.6672V38.6347V38.6022V38.5696V38.5369V38.5041V38.4713V38.4384V38.4054V38.3723V38.3392V38.3059V38.2726V38.2393V38.2058V38.1723V38.1386V38.105V38.0712V38.0374V38.0035V37.9695V37.9354V37.9013V37.8671V37.8328V37.7984V37.764V37.7295V37.6949V37.6603V37.6256V37.5908V37.5559V37.521V37.486V37.4509V37.4157V37.3805V37.3452V37.3099V37.2745V37.239V37.2034V37.1677V37.132V37.0963V37.0604V37.0245V36.9885V36.9525V36.9164V36.8802V36.8439V36.8076V36.7712V36.7348V36.6983V36.6617V36.625V36.5883V36.5515V36.5147V36.4778V36.4408V36.4038V36.3667V36.3295V36.2923V36.255V36.2176V36.1802V36.1427V36.1052V36.0676V36.0299V35.9922V35.9544V35.9165V35.8786V35.8407V35.8026V35.7645V35.7264V35.6882V35.6499V35.6116V35.5732V35.5347V35.4962V35.4576V35.419V35.3803V35.3416V35.3028V35.2639V35.225V35.1861V35.147V35.108V35.0688V35.0296V34.9904V34.9511V34.9117V34.8723V34.8328V34.7933V34.7537V34.7141V34.6744V34.6347V34.5949V34.555V34.5152V34.4752V34.4352V34.3951V34.355V34.3149V34.2747V34.2344V34.1941V34.1538V34.1133V34.0729V34.0324V33.9918V33.9512V33.9106V33.8698V33.8291V33.7883V33.7474V33.7065V33.6656V33.6246V33.5836V33.5425V33.5013V33.4601V33.4189V33.3776V33.3363V33.295V33.2536V33.2121V33.1706V33.1291V33.0875V33.0458V33.0042V32.9624V32.9207V32.8789V32.837V32.7951V32.7532V32.7112V32.6692V32.6271V32.585V32.5429V32.5007V32.4585V32.4162V32.3739V32.3315V32.2892V32.2467V32.2043V32.1618V32.1192V32.0766V32.034V31.9913V31.9486V31.9059V31.8631V31.8203V31.7775V31.7346V31.6917V31.6487V31.6057V31.5627V31.5196V31.4765V31.4334V31.3902V31.347V31.3038V31.2605V31.2172V31.1739V31.1305V31.0871V31.0437V31.0002V30.9567V30.9131V30.8696V30.826V30.7823V30.7387V30.695V30.6513V30.6075V30.5637V30.5199V30.4761V30.4322V30.3883V30.3443V30.3004V30.2564V30.2124V30.1683V30.1242V30.0801V30.036V29.9918V29.9477V29.9034V29.8592V29.8149V29.7706V29.7263V29.682V29.6376V29.5932V29.5488V29.5044V29.4599V29.4154V29.3709V29.3263V29.2818V29.2372V29.1926V29.1479V29.1033V29.0586V29.0139V28.9692V28.9245V28.8797V28.8349V28.7901V28.7453V28.7004V28.6556V28.6107V28.5658V28.5208V28.4759V28.4309V28.3859V28.3409V28.2959V28.2509V28.2058V28.1608V28.1157V28.0706V28.0254V27.9803V27.9351V27.89V27.8448V27.7996V27.7543V27.7091V27.6639V27.6186V27.5733V27.528V27.4827V27.4374V27.3921V27.3467V27.3013V27.256V27.2106V27.1652V27.1198V27.0743V27.0289V26.9835V26.938V26.8925V26.8471V26.8016V26.7561V26.7106V26.665V26.6195V26.574V26.5284V26.4829V26.4373V26.3917V26.3461V26.3006V26.255V26.2094V26.1637V26.1181V26.0725V26.0269V25.9812V25.9356V25.8899V25.8443V25.7986V25.753V25.7073V25.6616V25.616V25.5703V25.5246V25.4789V25.4332V25.3875V25.3418V25.2961V25.2504V25.2047V25.159V25.1133V25.0676V25.0219V24.9761V24.9304V24.8847V24.839V6.87245V6.29562L10.6977 6.37751C7.65972 6.81321 5.30499 9.42646 5.30499 12.5789V45.5697V46.925L6.18521 45.8944C7.32353 44.5615 8.96862 43.6446 10.8245 43.4362Z" fill="#87BCC0" stroke="#87BCC0"/>
<path d="M17.0862 6.28328H16.5862V6.78328V7.67492V8.17492H17.0862H19.7937H20.2937V7.67492V6.78328V6.28328H19.7937H17.0862ZM54.3594 8.17492H54.4622L54.5567 8.13433L55.5946 7.68851L56.6641 7.2291L55.5946 6.76969L54.5567 6.32387L54.4622 6.28328H54.3594H21.5987H21.0987V6.78328V7.67492V8.17492H21.5987H54.3594ZM54.6191 8.9582H15.7812V5.5H54.6191L58.7145 7.2291L54.6191 8.9582Z" fill="#87BCC0" stroke="#87BCC0"/>
<path d="M44.3863 48.2987H44.8863V47.7987V36.9303H45.6913V49.082H24.5801V36.9303H25.3851V47.7987V48.2987H25.8851H44.3863Z" fill="#87BCC0" stroke="#87BCC0"/>
<path d="M41.5022 26.4885V23.7786H45.6916V31.6155V31.8244L45.8402 31.9712L48.5938 34.6916L48.0417 35.2371L44.8866 32.1199V25.0619V24.5619H44.3866H42.8072H42.3072V25.0619V29.5716L35.4874 22.8338L35.136 22.4866L34.7846 22.8338L22.2303 35.2371L21.6782 34.6916L35.136 21.3957L40.6508 26.8442L41.5022 27.6854V26.4885Z" fill="#87BCC0" stroke="#87BCC0"/>
</svg>
