<svg width="64" height="64" viewBox="0 0 64 64" fill="none" xmlns="http://www.w3.org/2000/svg">
<path d="M10.7754 18.885V1H43.2217L55.0001 11.304V21.8722" stroke="#F7F2E6" stroke-width="1.8" stroke-miterlimit="10"/>
<path d="M43.2206 63H10.7744V36.5796" stroke="#F7F2E6" stroke-width="1.8" stroke-miterlimit="10"/>
<path d="M54.999 11.3039H43.2207V1" stroke="#F7F2E6" stroke-width="1.8" stroke-miterlimit="10"/>
<path d="M62.9998 62.9999H35.8984V24.8665C35.8984 23.1932 37.189 21.8721 38.8237 21.8721H60.0746C61.7093 21.8721 62.9998 23.1932 62.9998 24.8665V62.9999Z" stroke="#F7F2E6" stroke-width="1.8" stroke-miterlimit="10"/>
<path d="M10.7757 36.5793L3.97882 22.8407L2 18.8776L8.79684 15.4429L10.9477 19.2299L23.6811 42.4799L24.1973 50.7584L24.5414 55.3379L21.4442 52.3436L15.9378 46.9714L10.7757 36.5793Z" stroke="#F7F2E6" stroke-width="1.8" stroke-miterlimit="10"/>
<path d="M15.9375 46.9717L19.551 47.412L19.9812 44.9461L22.2181 45.9149L23.6807 42.4802" stroke="#F7F2E6" stroke-width="1.8" stroke-miterlimit="10"/>
<path d="M59.5594 26.3634H40.1152V33.9374H59.5594V26.3634Z" stroke="#F7F2E6" stroke-width="1.8" stroke-miterlimit="10"/>
</svg>
