<svg width="24" height="24" viewBox="0 0 24 24" fill="none" xmlns="http://www.w3.org/2000/svg">
<path d="M23.3925 6.18765C23.2909 5.7886 23.097 5.41974 22.8268 5.1115C22.5566 4.80326 22.2178 4.56447 21.8385 4.41485C18.1667 2.98661 12.3192 2.99854 12 3.00027C11.6809 2.99767 5.83339 2.98661 2.16161 4.41485C1.78228 4.56445 1.44353 4.80321 1.17331 5.11144C0.903096 5.41966 0.709158 5.7885 0.6075 6.18754C0.330321 7.2646 0 9.23403 0 12.5C0 15.766 0.330321 17.7353 0.6075 18.8124C0.709132 19.2115 0.903047 19.5803 1.17325 19.8886C1.44344 20.1968 1.78218 20.4356 2.1615 20.5852C5.67643 21.9525 11.1853 22 11.9294 22H12.0706C12.8153 22 18.3237 21.9523 21.8384 20.5852C22.2177 20.4356 22.5565 20.1968 22.8267 19.8886C23.0969 19.5804 23.2908 19.2116 23.3925 18.8125C23.6697 17.7355 24 15.766 24 12.5C24 9.23403 23.6697 7.26471 23.3925 6.18765ZM15.6663 12.861L10.5235 16.3315C10.4589 16.3751 10.3839 16.4001 10.3064 16.4039C10.2289 16.4077 10.1519 16.3901 10.0835 16.3531C10.0151 16.316 9.95793 16.2609 9.91807 16.1935C9.8782 16.1261 9.85714 16.0491 9.85714 15.9706V9.02948C9.85714 8.95096 9.8782 8.87391 9.91807 8.80655C9.95793 8.73919 10.0151 8.68404 10.0835 8.64699C10.1519 8.60995 10.2289 8.59238 10.3064 8.59618C10.3839 8.59997 10.4589 8.62498 10.5235 8.66854L15.6663 12.1391C15.725 12.1787 15.7731 12.2324 15.8064 12.2953C15.8397 12.3583 15.8571 12.4286 15.8571 12.5C15.8571 12.5714 15.8397 12.6417 15.8064 12.7047C15.7731 12.7677 15.725 12.8213 15.6663 12.861Z" fill="#87BCC0"/>
</svg>
