<svg width="101" height="16" viewBox="0 0 101 16" fill="none" xmlns="http://www.w3.org/2000/svg">
<path d="M12.1758 3.19922V12.5977C12.8398 12.5977 13.3008 12.6992 13.5586 12.9023C13.8164 13.1055 13.9453 13.4023 13.9453 13.793C13.9453 14.2305 13.8047 14.543 13.5234 14.7305C13.25 14.9102 12.7227 15 11.9414 15H10.0195C9.23828 15 8.70703 14.9102 8.42578 14.7305C8.15234 14.5508 8.01562 14.2383 8.01562 13.793C8.01562 13.3789 8.14844 13.0781 8.41406 12.8906C8.67969 12.6953 9.13281 12.5977 9.77344 12.5977V3.19922H6.48047V9.89062C6.48047 11.6562 6.14844 13.0156 5.48438 13.9688C4.82812 14.9141 3.85938 15.3867 2.57812 15.3867C0.898438 15.3867 0.0585938 14.9727 0.0585938 14.1445V12.6914C0.0585938 11.9336 0.160156 11.4297 0.363281 11.1797C0.566406 10.9297 0.867188 10.8047 1.26562 10.8047C2.0625 10.8047 2.46094 11.3867 2.46094 12.5508V12.9258C2.5625 12.9336 2.64062 12.9375 2.69531 12.9375C3.10938 12.9375 3.44141 12.6992 3.69141 12.2227C3.94141 11.7461 4.06641 10.9688 4.06641 9.89062V3.19922C3.94141 3.20703 3.8125 3.21094 3.67969 3.21094C2.5625 3.21094 2.00391 2.80469 2.00391 1.99219C2.00391 1.5625 2.14062 1.25781 2.41406 1.07812C2.6875 0.890625 3.21875 0.796875 4.00781 0.796875H11.9414C12.7148 0.796875 13.2422 0.886719 13.5234 1.06641C13.8047 1.24609 13.9453 1.55469 13.9453 1.99219C13.9453 2.375 13.8164 2.67188 13.5586 2.88281C13.3008 3.09375 12.8398 3.19922 12.1758 3.19922ZM27.8555 9.87891C27.8555 10.8008 27.5977 11.6953 27.082 12.5625C26.5742 13.4219 25.8125 14.1094 24.7969 14.625C23.7891 15.1328 22.7344 15.3867 21.6328 15.3867C20.5391 15.3867 19.4922 15.1367 18.4922 14.6367C17.4922 14.1289 16.7305 13.4414 16.207 12.5742C15.6836 11.707 15.4219 10.8008 15.4219 9.85547C15.4219 8.89453 15.6875 7.95312 16.2188 7.03125C16.75 6.10156 17.5117 5.37109 18.5039 4.83984C19.5039 4.30859 20.5469 4.04297 21.6328 4.04297C22.7266 4.04297 23.7773 4.31641 24.7852 4.86328C25.8008 5.40234 26.5664 6.13281 27.082 7.05469C27.5977 7.96875 27.8555 8.91016 27.8555 9.87891ZM25.4531 9.89062C25.4531 9.11719 25.1758 8.40625 24.6211 7.75781C23.8633 6.88281 22.8672 6.44531 21.6328 6.44531C20.5469 6.44531 19.6406 6.79297 18.9141 7.48828C18.1875 8.18359 17.8242 8.98828 17.8242 9.90234C17.8242 10.6523 18.1914 11.3555 18.9258 12.0117C19.6602 12.6602 20.5625 12.9844 21.6328 12.9844C22.7109 12.9844 23.6172 12.6602 24.3516 12.0117C25.0859 11.3555 25.4531 10.6484 25.4531 9.89062ZM35.0273 12.5977H36.4336C37.5039 12.5977 38.0391 13 38.0391 13.8047C38.0391 14.6016 37.5039 15 36.4336 15H31.2305C30.1602 15 29.625 14.5977 29.625 13.793C29.625 12.9961 30.1602 12.5977 31.2305 12.5977H32.625V6.76172H31.2305C30.1602 6.76172 29.625 6.36328 29.625 5.56641C29.625 4.76172 30.1602 4.35938 31.2305 4.35938H42.6094V9.03516C42.6094 10.1055 42.2109 10.6406 41.4141 10.6406C40.6094 10.6406 40.207 10.1055 40.207 9.03516V6.76172H35.0273V12.5977ZM56.6836 9.87891C56.6836 10.8008 56.4258 11.6953 55.9102 12.5625C55.4023 13.4219 54.6406 14.1094 53.625 14.625C52.6172 15.1328 51.5625 15.3867 50.4609 15.3867C49.3672 15.3867 48.3203 15.1367 47.3203 14.6367C46.3203 14.1289 45.5586 13.4414 45.0352 12.5742C44.5117 11.707 44.25 10.8008 44.25 9.85547C44.25 8.89453 44.5156 7.95312 45.0469 7.03125C45.5781 6.10156 46.3398 5.37109 47.332 4.83984C48.332 4.30859 49.375 4.04297 50.4609 4.04297C51.5547 4.04297 52.6055 4.31641 53.6133 4.86328C54.6289 5.40234 55.3945 6.13281 55.9102 7.05469C56.4258 7.96875 56.6836 8.91016 56.6836 9.87891ZM54.2812 9.89062C54.2812 9.11719 54.0039 8.40625 53.4492 7.75781C52.6914 6.88281 51.6953 6.44531 50.4609 6.44531C49.375 6.44531 48.4688 6.79297 47.7422 7.48828C47.0156 8.18359 46.6523 8.98828 46.6523 9.90234C46.6523 10.6523 47.0195 11.3555 47.7539 12.0117C48.4883 12.6602 49.3906 12.9844 50.4609 12.9844C51.5391 12.9844 52.4453 12.6602 53.1797 12.0117C53.9141 11.3555 54.2812 10.6484 54.2812 9.89062ZM66.0234 6.76172V12.5977H67.6406C68.7109 12.5977 69.2461 12.9961 69.2461 13.793C69.2461 14.5977 68.7109 15 67.6406 15H62.0156C60.9453 15 60.4102 14.5977 60.4102 13.793C60.4102 12.9961 60.9453 12.5977 62.0156 12.5977H63.6211V6.76172H61.0195V9.04688C61.0195 10.1172 60.6211 10.6523 59.8242 10.6523C59.0195 10.6523 58.6172 10.1172 58.6172 9.04688V4.35938H71.0625V9.04688C71.0625 10.1172 70.6602 10.6523 69.8555 10.6523C69.0586 10.6523 68.6602 10.1172 68.6602 9.04688V6.76172H66.0234ZM73.7578 12.5977V6.76172C72.7656 6.76172 72.2695 6.36328 72.2695 5.56641C72.2695 4.76172 72.8047 4.35938 73.875 4.35938H76.6055C77.2148 4.35938 77.6562 4.45312 77.9297 4.64062C78.2109 4.82812 78.3516 5.13672 78.3516 5.56641C78.3516 5.98828 78.2148 6.29297 77.9414 6.48047C77.668 6.66797 77.2227 6.76172 76.6055 6.76172H76.1602V11.5195L81.8789 4.35938H84.6562C85.7266 4.35938 86.2617 4.76172 86.2617 5.56641C86.2617 6.36328 85.7266 6.76172 84.6562 6.76172H84.2812V12.5977C85.375 12.5977 85.9219 12.9961 85.9219 13.793C85.9219 14.5977 85.3867 15 84.3164 15H81.5859C80.5234 15 79.9922 14.5977 79.9922 13.793C79.9922 12.9961 80.5234 12.5977 81.5859 12.5977H81.8789V7.80469L76.1602 15H73.7578C72.7812 15 72.293 14.5977 72.293 13.793C72.293 12.9961 72.7812 12.5977 73.7578 12.5977ZM96.2461 6.76172H91.1133V12.5977H91.4883C92.5586 12.5977 93.0938 12.9961 93.0938 13.793C93.0938 14.5977 92.5586 15 91.4883 15H88.5469C87.4766 15 86.9414 14.5977 86.9414 13.793C86.9414 13.3711 87.0781 13.0664 87.3516 12.8789C87.625 12.6914 88.0781 12.5977 88.7109 12.5977V6.76172C87.8594 6.69922 87.4336 6.30078 87.4336 5.56641C87.4336 4.76172 87.9688 4.35938 89.0391 4.35938H98.3203C99.3906 4.35938 99.9258 4.76172 99.9258 5.56641C99.9258 6.30078 99.5 6.69922 98.6484 6.76172V12.5977C99.2734 12.5977 99.7227 12.6914 99.9961 12.8789C100.277 13.0586 100.418 13.3633 100.418 13.793C100.418 14.5977 99.8828 15 98.8125 15H95.8711C94.8008 15 94.2656 14.5977 94.2656 13.793C94.2656 12.9961 94.8008 12.5977 95.8711 12.5977H96.2461V6.76172Z" fill="#87BCC0"/>
</svg>
