<svg width="312" height="244" viewBox="0 0 312 244" fill="none" xmlns="http://www.w3.org/2000/svg">
<path opacity="0.2" d="M279.542 242H2.59225L33.9346 122.507L34.0677 122L33.9346 121.493L2.59224 2H279.542L309.937 122L279.542 242Z" fill="#D8D8D8" stroke="#F7F2E6" stroke-width="4"/>
<path d="M182.488 121.898V122.171L182.751 122.244L185.947 123.131V128.804L185.543 128.955C176.391 132.063 166.748 133.641 157.153 133.641C147.557 133.641 137.914 132.11 128.764 128.955L128.359 128.804V123.131L131.555 122.244L131.818 122.171V121.898V117.815C131.818 108.402 137.416 99.7377 146.188 95.6167L146.395 95.5196V95.2914V94.2828C146.395 92.6179 147.756 91.2805 149.494 91.2805H156.165H156.524V90.921V89.3595H157.782V90.921V91.2805H158.141H164.812C166.55 91.2805 167.911 92.6179 167.911 94.2828V95.2914V95.5196L168.118 95.6167C176.891 99.7379 182.488 108.355 182.488 117.815V121.898ZM129.88 124.001L129.617 124.074V124.347V127.709V127.968L129.863 128.05C147.478 133.885 166.828 133.885 184.443 128.05L184.689 127.968V127.709V124.299V124.026L184.426 123.952L181.23 123.065V117.815C181.23 109.128 176.259 101.179 168.436 97.1332L167.911 96.862V97.4525V105.93H166.654V94.2828C166.654 93.2583 165.841 92.4826 164.812 92.4826H158.141H157.782V92.842V112.653H156.524V92.842V92.4826H156.165H149.494C148.465 92.4826 147.652 93.2583 147.652 94.2828V105.93H146.395V97.4525V96.862L145.87 97.1332C138.047 101.179 133.076 109.128 133.076 117.815V123.113L129.88 124.001Z" fill="#87BCC0" stroke="#87BCC0" stroke-width="0.718901"/>
<path d="M140.218 123.219V122.017H174.088V123.219H140.218Z" fill="#87BCC0" stroke="#87BCC0" stroke-width="0.718901"/>
<path d="M129.5 183.198V176.149C128.896 176.097 128.595 175.792 128.595 175.235C128.595 174.644 128.952 174.348 129.667 174.348H131.091C131.841 174.348 132.216 174.646 132.216 175.244C132.216 175.818 131.911 176.12 131.302 176.149V183.198H132.875V174.348H134.782C135.597 174.348 136.004 174.646 136.004 175.244C136.004 175.561 135.898 175.792 135.688 175.938C135.482 176.079 135.146 176.149 134.677 176.149V183.198C135.421 183.198 135.793 183.5 135.793 184.104C135.793 184.373 135.699 184.59 135.512 184.754C135.324 184.918 135.081 185 134.782 185H126.38C125.577 185 125.176 184.701 125.176 184.104C125.176 183.547 125.495 183.245 126.134 183.198V176.149C125.665 176.149 125.325 176.082 125.114 175.947C124.909 175.807 124.807 175.572 124.807 175.244C124.807 174.646 125.208 174.348 126.011 174.348H127.936V183.198H129.5ZM145.213 182.1H140.836L140.397 183.198H140.836C141.27 183.198 141.577 183.283 141.759 183.453C141.946 183.617 142.04 183.834 142.04 184.104C142.04 184.367 141.946 184.584 141.759 184.754C141.577 184.918 141.27 185 140.836 185H138.41C137.977 185 137.669 184.918 137.488 184.754C137.3 184.584 137.206 184.364 137.206 184.095C137.206 183.825 137.303 183.605 137.496 183.436C137.69 183.266 138.009 183.187 138.454 183.198L141.284 176.149H140.107C139.673 176.149 139.363 176.067 139.175 175.903C138.993 175.733 138.903 175.514 138.903 175.244C138.903 174.975 138.993 174.758 139.175 174.594C139.363 174.424 139.673 174.339 140.107 174.339L144 174.348L147.586 183.198C148.008 183.198 148.286 183.245 148.421 183.339C148.691 183.532 148.825 183.787 148.825 184.104C148.825 184.367 148.735 184.584 148.553 184.754C148.371 184.918 148.064 185 147.63 185H145.204C144.771 185 144.46 184.918 144.273 184.754C144.091 184.584 144 184.364 144 184.095C144 183.831 144.091 183.617 144.273 183.453C144.46 183.283 144.771 183.198 145.204 183.198H145.644L145.213 182.1ZM144.466 180.298L143.016 176.729L141.557 180.298H144.466ZM154.871 183.198H155.925C156.728 183.198 157.129 183.5 157.129 184.104C157.129 184.701 156.728 185 155.925 185H152.023C151.22 185 150.819 184.698 150.819 184.095C150.819 183.497 151.22 183.198 152.023 183.198H153.069V176.149H152.023C151.22 176.149 150.819 175.848 150.819 175.244C150.819 174.646 151.22 174.348 152.023 174.348H160.557V177.854C160.557 178.651 160.258 179.05 159.661 179.05C159.057 179.05 158.755 178.651 158.755 177.854V176.149H154.871V183.198ZM183.414 178.979C183.947 179.343 184.346 179.765 184.609 180.245C184.873 180.72 185.005 181.253 185.005 181.845C185.005 182.483 184.829 183.075 184.477 183.62C184.132 184.159 183.628 184.569 182.966 184.851C182.304 185.126 181.436 185.264 180.364 185.264C178.97 185.264 177.921 185.047 177.218 184.613C176.825 184.367 176.629 184.074 176.629 183.734C176.629 183.477 176.714 183.26 176.884 183.084C177.059 182.902 177.27 182.812 177.516 182.812C177.686 182.812 177.862 182.87 178.044 182.987C178.302 183.163 178.545 183.28 178.773 183.339C179.125 183.421 179.608 183.462 180.223 183.462C181.272 183.462 182.031 183.327 182.5 183.058C182.969 182.782 183.203 182.396 183.203 181.897C183.203 181.528 183.065 181.174 182.79 180.834C182.52 180.488 182.157 180.222 181.7 180.034C181.436 179.929 180.991 179.855 180.364 179.814C180.065 179.797 179.834 179.706 179.67 179.542C179.512 179.372 179.432 179.164 179.432 178.918C179.432 178.66 179.52 178.443 179.696 178.268C179.872 178.092 180.095 178.004 180.364 178.004C180.962 178.004 181.281 178.001 181.322 177.995C181.556 177.972 181.791 177.896 182.025 177.767C182.26 177.638 182.447 177.462 182.588 177.239C182.734 177.011 182.807 176.776 182.807 176.536C182.807 176.155 182.638 175.827 182.298 175.552C181.964 175.271 181.46 175.13 180.786 175.13C179.919 175.13 179.257 175.382 178.8 175.886C178.665 176.032 178.556 176.126 178.474 176.167C178.351 176.231 178.214 176.264 178.061 176.264C177.815 176.264 177.604 176.176 177.429 176C177.253 175.824 177.165 175.607 177.165 175.35C177.165 174.945 177.434 174.553 177.973 174.172C178.759 173.615 179.74 173.337 180.918 173.337C182.031 173.337 182.925 173.653 183.598 174.286C184.272 174.919 184.609 175.681 184.609 176.571C184.609 177.034 184.51 177.468 184.31 177.872C184.111 178.271 183.812 178.64 183.414 178.979Z" fill="#87BCC0"/>
</svg>
