<svg width="312" height="244" viewBox="0 0 312 244" fill="none" xmlns="http://www.w3.org/2000/svg">
<path opacity="0.2" d="M279.542 242H2.59225L33.9346 122.507L34.0677 122L33.9346 121.493L2.59224 2H279.542L309.937 122L279.542 242Z" fill="#D8D8D8" stroke="#F7F2E6" stroke-width="4"/>
<mask id="path-2-inside-1_798_4844" fill="white">
<path d="M177.526 105.2L172.857 97.2182C172.317 96.2926 171.516 95.5413 170.553 95.0553C169.589 94.5694 168.503 94.3697 167.426 94.4804C166.35 94.5911 165.329 95.0075 164.488 95.6791C163.646 96.3506 163.02 97.2486 162.685 98.2643L157.765 89.8539C157.223 88.9268 156.421 88.1749 155.454 87.6894C154.488 87.2039 153.4 87.0056 152.322 87.1187C151.243 87.2317 150.222 87.6513 149.38 88.3263C148.539 89.0014 147.914 89.9029 147.582 90.9216C146.765 89.7413 145.517 88.9192 144.099 88.6279C142.681 88.3366 141.203 88.5987 139.977 89.3593C138.751 90.1198 137.871 91.3196 137.521 92.7068C137.172 94.0941 137.381 95.5609 138.104 96.7993L139.754 99.6191C138.695 99.3989 137.595 99.4862 136.585 99.8704C135.576 100.255 134.7 100.919 134.065 101.784C133.431 102.648 133.063 103.676 133.007 104.742C132.952 105.809 133.21 106.868 133.752 107.793L143.558 124.554C144.843 126.76 146.557 128.693 148.6 130.245C150.643 131.796 152.977 132.935 155.467 133.595C157.956 134.256 160.554 134.426 163.11 134.095C165.666 133.764 168.131 132.938 170.364 131.666C172.597 130.394 174.553 128.7 176.122 126.681C177.691 124.661 178.841 122.357 179.506 119.898C180.171 117.44 180.339 114.877 179.999 112.354C179.659 109.832 178.819 107.401 177.526 105.2ZM177.681 119.409C176.773 122.754 174.88 125.759 172.241 128.043C169.603 130.326 166.337 131.787 162.858 132.239C159.378 132.691 155.841 132.114 152.694 130.582C149.546 129.051 146.929 126.632 145.175 123.632L135.369 106.871C134.874 106.024 134.739 105.018 134.996 104.073C135.252 103.129 135.878 102.324 136.736 101.835C137.594 101.346 138.614 101.214 139.571 101.467C140.528 101.72 141.344 102.338 141.839 103.184L146.976 111.964C147.005 112.012 147.038 112.058 147.075 112.1C147.084 112.11 147.093 112.12 147.102 112.13C147.138 112.169 147.177 112.205 147.219 112.237L147.222 112.239C147.265 112.271 147.311 112.298 147.359 112.322C147.371 112.328 147.383 112.334 147.395 112.339C147.44 112.36 147.487 112.378 147.536 112.391L147.545 112.394C147.596 112.407 147.648 112.416 147.701 112.42C147.714 112.421 147.727 112.422 147.741 112.422C147.756 112.423 147.771 112.425 147.786 112.425C147.822 112.425 147.858 112.423 147.893 112.418C147.896 112.418 147.899 112.418 147.902 112.418C147.955 112.411 148.009 112.399 148.06 112.383L148.098 112.37C148.227 112.326 148.346 112.254 148.444 112.159C148.542 112.065 148.617 111.95 148.664 111.823C148.712 111.695 148.73 111.56 148.718 111.425C148.706 111.29 148.663 111.159 148.593 111.043L143.457 102.263V102.262L139.721 95.8777C139.226 95.0309 139.092 94.0247 139.348 93.0802C139.605 92.1358 140.231 91.3306 141.089 90.8417C141.947 90.3529 142.966 90.2204 143.923 90.4735C144.88 90.7265 145.696 91.3444 146.192 92.1911L154.13 105.76C154.19 105.866 154.272 105.958 154.369 106.033C154.467 106.107 154.578 106.162 154.697 106.194C154.816 106.226 154.94 106.234 155.062 106.218C155.184 106.203 155.302 106.163 155.408 106.103C155.515 106.042 155.609 105.961 155.683 105.864C155.758 105.768 155.813 105.658 155.844 105.54C155.876 105.423 155.883 105.3 155.867 105.18C155.85 105.059 155.809 104.943 155.747 104.838L149.677 94.4621C149.181 93.6153 149.047 92.609 149.304 91.6645C149.56 90.7201 150.186 89.9149 151.044 89.426C151.902 88.9371 152.922 88.8047 153.879 89.0577C154.836 89.3108 155.652 89.9287 156.147 90.7755L163.151 102.747L163.151 102.748L165.04 105.976C162.946 107.435 161.481 109.613 160.931 112.084C160.381 114.554 160.787 117.138 162.068 119.329C162.128 119.435 162.209 119.529 162.307 119.605C162.404 119.681 162.516 119.736 162.635 119.769C162.755 119.802 162.879 119.81 163.002 119.795C163.125 119.779 163.244 119.74 163.351 119.679C163.458 119.618 163.552 119.536 163.627 119.439C163.702 119.341 163.757 119.23 163.788 119.112C163.819 118.994 163.826 118.87 163.808 118.749C163.791 118.628 163.749 118.512 163.685 118.407C163.133 117.464 162.775 116.422 162.631 115.342C162.487 114.262 162.56 113.165 162.846 112.113C163.131 111.06 163.624 110.074 164.296 109.21C164.968 108.346 165.806 107.621 166.762 107.076C166.816 107.045 166.866 107.009 166.913 106.969C166.939 106.944 166.964 106.918 166.987 106.89C167.003 106.872 167.022 106.856 167.037 106.837C167.062 106.803 167.084 106.768 167.104 106.73C167.113 106.715 167.125 106.701 167.133 106.684C167.186 106.577 167.218 106.459 167.226 106.339C167.228 106.32 167.225 106.301 167.225 106.281C167.226 106.241 167.225 106.2 167.221 106.16C167.218 106.138 167.21 106.117 167.206 106.095C167.2 106.057 167.191 106.02 167.18 105.984C167.16 105.926 167.135 105.87 167.104 105.817L164.769 101.826C164.284 100.98 164.158 99.9789 164.417 99.0413C164.676 98.1037 165.3 97.3051 166.153 96.8192C167.006 96.3333 168.019 96.1995 168.971 96.4468C169.924 96.6941 170.739 97.3026 171.239 98.1399L175.908 106.121C177.079 108.11 177.839 110.309 178.143 112.59C178.448 114.871 178.291 117.188 177.681 119.409ZM146.624 136.603C146.554 136.703 146.465 136.788 146.362 136.853C146.259 136.919 146.144 136.964 146.023 136.985C145.902 137.007 145.778 137.005 145.658 136.979C145.539 136.953 145.425 136.905 145.324 136.836C142.042 134.594 139.308 131.658 137.321 128.241C137.199 128.03 137.167 127.779 137.232 127.544C137.297 127.309 137.453 127.109 137.666 126.988C137.88 126.866 138.133 126.833 138.372 126.895C138.61 126.957 138.814 127.11 138.939 127.32C140.788 130.5 143.333 133.234 146.389 135.321C146.592 135.46 146.731 135.674 146.775 135.914C146.82 136.155 146.765 136.402 146.624 136.603ZM167.081 87.9207C167.081 87.6764 167.179 87.4423 167.354 87.2696C167.529 87.097 167.767 87 168.014 87H168.015C170.309 87.0052 172.561 87.6038 174.547 88.7359C176.534 89.8681 178.184 91.4943 179.335 93.4524C179.399 93.5573 179.441 93.6736 179.458 93.7947C179.476 93.9157 179.469 94.039 179.438 94.1574C179.407 94.2758 179.352 94.3868 179.277 94.4841C179.202 94.5815 179.108 94.6631 179.001 94.7242C178.894 94.7854 178.775 94.8248 178.652 94.8403C178.529 94.8558 178.405 94.847 178.285 94.8144C178.166 94.7818 178.054 94.7261 177.957 94.6505C177.859 94.5749 177.778 94.4809 177.718 94.374C176.731 92.6954 175.316 91.3014 173.613 90.331C171.911 89.3605 169.98 88.8476 168.013 88.8433C167.891 88.8432 167.769 88.8192 167.656 88.7728C167.543 88.7263 167.44 88.6584 167.353 88.5727C167.267 88.487 167.198 88.3853 167.151 88.2735C167.104 88.1616 167.08 88.0417 167.081 87.9207Z"/>
</mask>
<path d="M177.526 105.2L172.857 97.2182C172.317 96.2926 171.516 95.5413 170.553 95.0553C169.589 94.5694 168.503 94.3697 167.426 94.4804C166.35 94.5911 165.329 95.0075 164.488 95.6791C163.646 96.3506 163.02 97.2486 162.685 98.2643L157.765 89.8539C157.223 88.9268 156.421 88.1749 155.454 87.6894C154.488 87.2039 153.4 87.0056 152.322 87.1187C151.243 87.2317 150.222 87.6513 149.38 88.3263C148.539 89.0014 147.914 89.9029 147.582 90.9216C146.765 89.7413 145.517 88.9192 144.099 88.6279C142.681 88.3366 141.203 88.5987 139.977 89.3593C138.751 90.1198 137.871 91.3196 137.521 92.7068C137.172 94.0941 137.381 95.5609 138.104 96.7993L139.754 99.6191C138.695 99.3989 137.595 99.4862 136.585 99.8704C135.576 100.255 134.7 100.919 134.065 101.784C133.431 102.648 133.063 103.676 133.007 104.742C132.952 105.809 133.21 106.868 133.752 107.793L143.558 124.554C144.843 126.76 146.557 128.693 148.6 130.245C150.643 131.796 152.977 132.935 155.467 133.595C157.956 134.256 160.554 134.426 163.11 134.095C165.666 133.764 168.131 132.938 170.364 131.666C172.597 130.394 174.553 128.7 176.122 126.681C177.691 124.661 178.841 122.357 179.506 119.898C180.171 117.44 180.339 114.877 179.999 112.354C179.659 109.832 178.819 107.401 177.526 105.2ZM177.681 119.409C176.773 122.754 174.88 125.759 172.241 128.043C169.603 130.326 166.337 131.787 162.858 132.239C159.378 132.691 155.841 132.114 152.694 130.582C149.546 129.051 146.929 126.632 145.175 123.632L135.369 106.871C134.874 106.024 134.739 105.018 134.996 104.073C135.252 103.129 135.878 102.324 136.736 101.835C137.594 101.346 138.614 101.214 139.571 101.467C140.528 101.72 141.344 102.338 141.839 103.184L146.976 111.964C147.005 112.012 147.038 112.058 147.075 112.1C147.084 112.11 147.093 112.12 147.102 112.13C147.138 112.169 147.177 112.205 147.219 112.237L147.222 112.239C147.265 112.271 147.311 112.298 147.359 112.322C147.371 112.328 147.383 112.334 147.395 112.339C147.44 112.36 147.487 112.378 147.536 112.391L147.545 112.394C147.596 112.407 147.648 112.416 147.701 112.42C147.714 112.421 147.727 112.422 147.741 112.422C147.756 112.423 147.771 112.425 147.786 112.425C147.822 112.425 147.858 112.423 147.893 112.418C147.896 112.418 147.899 112.418 147.902 112.418C147.955 112.411 148.009 112.399 148.06 112.383L148.098 112.37C148.227 112.326 148.346 112.254 148.444 112.159C148.542 112.065 148.617 111.95 148.664 111.823C148.712 111.695 148.73 111.56 148.718 111.425C148.706 111.29 148.663 111.159 148.593 111.043L143.457 102.263V102.262L139.721 95.8777C139.226 95.0309 139.092 94.0247 139.348 93.0802C139.605 92.1358 140.231 91.3306 141.089 90.8417C141.947 90.3529 142.966 90.2204 143.923 90.4735C144.88 90.7265 145.696 91.3444 146.192 92.1911L154.13 105.76C154.19 105.866 154.272 105.958 154.369 106.033C154.467 106.107 154.578 106.162 154.697 106.194C154.816 106.226 154.94 106.234 155.062 106.218C155.184 106.203 155.302 106.163 155.408 106.103C155.515 106.042 155.609 105.961 155.683 105.864C155.758 105.768 155.813 105.658 155.844 105.54C155.876 105.423 155.883 105.3 155.867 105.18C155.85 105.059 155.809 104.943 155.747 104.838L149.677 94.4621C149.181 93.6153 149.047 92.609 149.304 91.6645C149.56 90.7201 150.186 89.9149 151.044 89.426C151.902 88.9371 152.922 88.8047 153.879 89.0577C154.836 89.3108 155.652 89.9287 156.147 90.7755L163.151 102.747L163.151 102.748L165.04 105.976C162.946 107.435 161.481 109.613 160.931 112.084C160.381 114.554 160.787 117.138 162.068 119.329C162.128 119.435 162.209 119.529 162.307 119.605C162.404 119.681 162.516 119.736 162.635 119.769C162.755 119.802 162.879 119.81 163.002 119.795C163.125 119.779 163.244 119.74 163.351 119.679C163.458 119.618 163.552 119.536 163.627 119.439C163.702 119.341 163.757 119.23 163.788 119.112C163.819 118.994 163.826 118.87 163.808 118.749C163.791 118.628 163.749 118.512 163.685 118.407C163.133 117.464 162.775 116.422 162.631 115.342C162.487 114.262 162.56 113.165 162.846 112.113C163.131 111.06 163.624 110.074 164.296 109.21C164.968 108.346 165.806 107.621 166.762 107.076C166.816 107.045 166.866 107.009 166.913 106.969C166.939 106.944 166.964 106.918 166.987 106.89C167.003 106.872 167.022 106.856 167.037 106.837C167.062 106.803 167.084 106.768 167.104 106.73C167.113 106.715 167.125 106.701 167.133 106.684C167.186 106.577 167.218 106.459 167.226 106.339C167.228 106.32 167.225 106.301 167.225 106.281C167.226 106.241 167.225 106.2 167.221 106.16C167.218 106.138 167.21 106.117 167.206 106.095C167.2 106.057 167.191 106.02 167.18 105.984C167.16 105.926 167.135 105.87 167.104 105.817L164.769 101.826C164.284 100.98 164.158 99.9789 164.417 99.0413C164.676 98.1037 165.3 97.3051 166.153 96.8192C167.006 96.3333 168.019 96.1995 168.971 96.4468C169.924 96.6941 170.739 97.3026 171.239 98.1399L175.908 106.121C177.079 108.11 177.839 110.309 178.143 112.59C178.448 114.871 178.291 117.188 177.681 119.409ZM146.624 136.603C146.554 136.703 146.465 136.788 146.362 136.853C146.259 136.919 146.144 136.964 146.023 136.985C145.902 137.007 145.778 137.005 145.658 136.979C145.539 136.953 145.425 136.905 145.324 136.836C142.042 134.594 139.308 131.658 137.321 128.241C137.199 128.03 137.167 127.779 137.232 127.544C137.297 127.309 137.453 127.109 137.666 126.988C137.88 126.866 138.133 126.833 138.372 126.895C138.61 126.957 138.814 127.11 138.939 127.32C140.788 130.5 143.333 133.234 146.389 135.321C146.592 135.46 146.731 135.674 146.775 135.914C146.82 136.155 146.765 136.402 146.624 136.603ZM167.081 87.9207C167.081 87.6764 167.179 87.4423 167.354 87.2696C167.529 87.097 167.767 87 168.014 87H168.015C170.309 87.0052 172.561 87.6038 174.547 88.7359C176.534 89.8681 178.184 91.4943 179.335 93.4524C179.399 93.5573 179.441 93.6736 179.458 93.7947C179.476 93.9157 179.469 94.039 179.438 94.1574C179.407 94.2758 179.352 94.3868 179.277 94.4841C179.202 94.5815 179.108 94.6631 179.001 94.7242C178.894 94.7854 178.775 94.8248 178.652 94.8403C178.529 94.8558 178.405 94.847 178.285 94.8144C178.166 94.7818 178.054 94.7261 177.957 94.6505C177.859 94.5749 177.778 94.4809 177.718 94.374C176.731 92.6954 175.316 91.3014 173.613 90.331C171.911 89.3605 169.98 88.8476 168.013 88.8433C167.891 88.8432 167.769 88.8192 167.656 88.7728C167.543 88.7263 167.44 88.6584 167.353 88.5727C167.267 88.487 167.198 88.3853 167.151 88.2735C167.104 88.1616 167.08 88.0417 167.081 87.9207Z" fill="#87BCC0" stroke="#87BCC0" stroke-width="0.117925" mask="url(#path-2-inside-1_798_4844)"/>
<path d="M129.5 183.198V176.149C128.896 176.097 128.595 175.792 128.595 175.235C128.595 174.644 128.952 174.348 129.667 174.348H131.091C131.841 174.348 132.216 174.646 132.216 175.244C132.216 175.818 131.911 176.12 131.302 176.149V183.198H132.875V174.348H134.782C135.597 174.348 136.004 174.646 136.004 175.244C136.004 175.561 135.898 175.792 135.688 175.938C135.482 176.079 135.146 176.149 134.677 176.149V183.198C135.421 183.198 135.793 183.5 135.793 184.104C135.793 184.373 135.699 184.59 135.512 184.754C135.324 184.918 135.081 185 134.782 185H126.38C125.577 185 125.176 184.701 125.176 184.104C125.176 183.547 125.495 183.245 126.134 183.198V176.149C125.665 176.149 125.325 176.082 125.114 175.947C124.909 175.807 124.807 175.572 124.807 175.244C124.807 174.646 125.208 174.348 126.011 174.348H127.936V183.198H129.5ZM145.213 182.1H140.836L140.397 183.198H140.836C141.27 183.198 141.577 183.283 141.759 183.453C141.946 183.617 142.04 183.834 142.04 184.104C142.04 184.367 141.946 184.584 141.759 184.754C141.577 184.918 141.27 185 140.836 185H138.41C137.977 185 137.669 184.918 137.488 184.754C137.3 184.584 137.206 184.364 137.206 184.095C137.206 183.825 137.303 183.605 137.496 183.436C137.69 183.266 138.009 183.187 138.454 183.198L141.284 176.149H140.107C139.673 176.149 139.363 176.067 139.175 175.903C138.993 175.733 138.903 175.514 138.903 175.244C138.903 174.975 138.993 174.758 139.175 174.594C139.363 174.424 139.673 174.339 140.107 174.339L144 174.348L147.586 183.198C148.008 183.198 148.286 183.245 148.421 183.339C148.691 183.532 148.825 183.787 148.825 184.104C148.825 184.367 148.735 184.584 148.553 184.754C148.371 184.918 148.064 185 147.63 185H145.204C144.771 185 144.46 184.918 144.273 184.754C144.091 184.584 144 184.364 144 184.095C144 183.831 144.091 183.617 144.273 183.453C144.46 183.283 144.771 183.198 145.204 183.198H145.644L145.213 182.1ZM144.466 180.298L143.016 176.729L141.557 180.298H144.466ZM154.871 183.198H155.925C156.728 183.198 157.129 183.5 157.129 184.104C157.129 184.701 156.728 185 155.925 185H152.023C151.22 185 150.819 184.698 150.819 184.095C150.819 183.497 151.22 183.198 152.023 183.198H153.069V176.149H152.023C151.22 176.149 150.819 175.848 150.819 175.244C150.819 174.646 151.22 174.348 152.023 174.348H160.557V177.854C160.557 178.651 160.258 179.05 159.661 179.05C159.057 179.05 158.755 178.651 158.755 177.854V176.149H154.871V183.198ZM179.16 183.198H183.106C183.323 183.022 183.528 182.935 183.721 182.935C183.997 182.935 184.214 183.025 184.372 183.207C184.536 183.389 184.618 183.699 184.618 184.139V185H176.409V183.093C179.655 180.415 181.615 178.692 182.289 177.925C182.629 177.532 182.799 177.16 182.799 176.809C182.799 176.369 182.605 175.982 182.219 175.648C181.838 175.309 181.328 175.139 180.689 175.139C180.045 175.139 179.509 175.326 179.081 175.701C178.858 175.9 178.679 176.196 178.545 176.589C178.463 176.835 178.348 177.011 178.202 177.116C178.061 177.222 177.886 177.274 177.675 177.274C177.429 177.274 177.215 177.187 177.033 177.011C176.857 176.835 176.769 176.63 176.769 176.396C176.769 176.044 176.93 175.604 177.253 175.077C177.581 174.55 178.055 174.128 178.677 173.812C179.304 173.495 179.983 173.337 180.716 173.337C181.852 173.337 182.784 173.683 183.511 174.374C184.237 175.06 184.6 175.892 184.6 176.87C184.6 177.368 184.495 177.831 184.284 178.259C184.079 178.681 183.581 179.267 182.79 180.017C182.169 180.608 180.959 181.669 179.16 183.198Z" fill="#87BCC0"/>
</svg>
