<svg width="280" height="244" viewBox="0 0 280 244" fill="none" xmlns="http://www.w3.org/2000/svg">
<rect opacity="0.2" x="2" y="2" width="276" height="240" stroke="#F7F2E6" stroke-width="4"/>
<rect y="236" width="248" height="4" fill="#26484A"/>
<path d="M97.5 183.198V176.149C96.8965 176.097 96.5947 175.792 96.5947 175.235C96.5947 174.644 96.9521 174.348 97.667 174.348H99.0908C99.8408 174.348 100.216 174.646 100.216 175.244C100.216 175.818 99.9111 176.12 99.3018 176.149V183.198H100.875V174.348H102.782C103.597 174.348 104.004 174.646 104.004 175.244C104.004 175.561 103.898 175.792 103.688 175.938C103.482 176.079 103.146 176.149 102.677 176.149V183.198C103.421 183.198 103.793 183.5 103.793 184.104C103.793 184.373 103.699 184.59 103.512 184.754C103.324 184.918 103.081 185 102.782 185H94.3799C93.5771 185 93.1758 184.701 93.1758 184.104C93.1758 183.547 93.4951 183.245 94.1338 183.198V176.149C93.665 176.149 93.3252 176.082 93.1143 175.947C92.9092 175.807 92.8066 175.572 92.8066 175.244C92.8066 174.646 93.208 174.348 94.0107 174.348H95.9355V183.198H97.5ZM113.213 182.1H108.836L108.397 183.198H108.836C109.27 183.198 109.577 183.283 109.759 183.453C109.946 183.617 110.04 183.834 110.04 184.104C110.04 184.367 109.946 184.584 109.759 184.754C109.577 184.918 109.27 185 108.836 185H106.41C105.977 185 105.669 184.918 105.488 184.754C105.3 184.584 105.206 184.364 105.206 184.095C105.206 183.825 105.303 183.605 105.496 183.436C105.69 183.266 106.009 183.187 106.454 183.198L109.284 176.149H108.107C107.673 176.149 107.363 176.067 107.175 175.903C106.993 175.733 106.903 175.514 106.903 175.244C106.903 174.975 106.993 174.758 107.175 174.594C107.363 174.424 107.673 174.339 108.107 174.339L112 174.348L115.586 183.198C116.008 183.198 116.286 183.245 116.421 183.339C116.691 183.532 116.825 183.787 116.825 184.104C116.825 184.367 116.735 184.584 116.553 184.754C116.371 184.918 116.064 185 115.63 185H113.204C112.771 185 112.46 184.918 112.273 184.754C112.091 184.584 112 184.364 112 184.095C112 183.831 112.091 183.617 112.273 183.453C112.46 183.283 112.771 183.198 113.204 183.198H113.644L113.213 182.1ZM112.466 180.298L111.016 176.729L109.557 180.298H112.466ZM122.871 183.198H123.925C124.728 183.198 125.129 183.5 125.129 184.104C125.129 184.701 124.728 185 123.925 185H120.023C119.22 185 118.819 184.698 118.819 184.095C118.819 183.497 119.22 183.198 120.023 183.198H121.069V176.149H120.023C119.22 176.149 118.819 175.848 118.819 175.244C118.819 174.646 119.22 174.348 120.023 174.348H128.557V177.854C128.557 178.651 128.258 179.05 127.661 179.05C127.057 179.05 126.755 178.651 126.755 177.854V176.149H122.871V183.198ZM151.414 178.979C151.947 179.343 152.346 179.765 152.609 180.245C152.873 180.72 153.005 181.253 153.005 181.845C153.005 182.483 152.829 183.075 152.477 183.62C152.132 184.159 151.628 184.569 150.966 184.851C150.304 185.126 149.436 185.264 148.364 185.264C146.97 185.264 145.921 185.047 145.218 184.613C144.825 184.367 144.629 184.074 144.629 183.734C144.629 183.477 144.714 183.26 144.884 183.084C145.059 182.902 145.27 182.812 145.516 182.812C145.686 182.812 145.862 182.87 146.044 182.987C146.302 183.163 146.545 183.28 146.773 183.339C147.125 183.421 147.608 183.462 148.223 183.462C149.272 183.462 150.031 183.327 150.5 183.058C150.969 182.782 151.203 182.396 151.203 181.897C151.203 181.528 151.065 181.174 150.79 180.834C150.52 180.488 150.157 180.222 149.7 180.034C149.436 179.929 148.991 179.855 148.364 179.814C148.065 179.797 147.834 179.706 147.67 179.542C147.512 179.372 147.432 179.164 147.432 178.918C147.432 178.66 147.52 178.443 147.696 178.268C147.872 178.092 148.095 178.004 148.364 178.004C148.962 178.004 149.281 178.001 149.322 177.995C149.556 177.972 149.791 177.896 150.025 177.767C150.26 177.638 150.447 177.462 150.588 177.239C150.734 177.011 150.807 176.776 150.807 176.536C150.807 176.155 150.638 175.827 150.298 175.552C149.964 175.271 149.46 175.13 148.786 175.13C147.919 175.13 147.257 175.382 146.8 175.886C146.665 176.032 146.556 176.126 146.474 176.167C146.351 176.231 146.214 176.264 146.061 176.264C145.815 176.264 145.604 176.176 145.429 176C145.253 175.824 145.165 175.607 145.165 175.35C145.165 174.945 145.434 174.553 145.973 174.172C146.759 173.615 147.74 173.337 148.918 173.337C150.031 173.337 150.925 173.653 151.598 174.286C152.272 174.919 152.609 175.681 152.609 176.571C152.609 177.034 152.51 177.468 152.31 177.872C152.111 178.271 151.812 178.64 151.414 178.979Z" fill="#26484A"/>
<path d="M150.488 121.898V122.171L150.751 122.244L153.947 123.131V128.804L153.543 128.955C144.391 132.063 134.748 133.641 125.153 133.641C115.557 133.641 105.914 132.11 96.7638 128.955L96.3595 128.804V123.131L99.555 122.244L99.8183 122.171V121.898V117.815C99.8183 108.402 105.416 99.7377 114.188 95.6167L114.395 95.5196V95.2914V94.2828C114.395 92.6179 115.756 91.2805 117.494 91.2805H124.165H124.524V90.921V89.3595H125.782V90.921V91.2805H126.141H132.812C134.55 91.2805 135.911 92.6179 135.911 94.2828V95.2914V95.5196L136.118 95.6167C144.891 99.7379 150.488 108.355 150.488 117.815V121.898ZM97.8803 124.001L97.617 124.074V124.347V127.709V127.968L97.8634 128.05C115.478 133.885 134.828 133.885 152.443 128.05L152.689 127.968V127.709V124.299V124.026L152.426 123.952L149.23 123.065V117.815C149.23 109.128 144.259 101.179 136.436 97.1332L135.911 96.862V97.4525V105.93H134.654V94.2828C134.654 93.2583 133.841 92.4826 132.812 92.4826H126.141H125.782V92.842V112.653H124.524V92.842V92.4826H124.165H117.494C116.465 92.4826 115.652 93.2583 115.652 94.2828V105.93H114.395V97.4525V96.862L113.87 97.1332C106.047 101.179 101.076 109.128 101.076 117.815V123.113L97.8803 124.001Z" fill="#26484A" stroke="#26484A" stroke-width="0.718901"/>
<path d="M108.218 123.219V122.017H142.088V123.219H108.218Z" fill="#26484A" stroke="#26484A" stroke-width="0.718901"/>
</svg>
