<svg width="280" height="244" viewBox="0 0 280 244" fill="none" xmlns="http://www.w3.org/2000/svg">
<rect opacity="0.2" x="2" y="2" width="276" height="240" stroke="#F7F2E6" stroke-width="4"/>
<path d="M116.5 189.198V182.149C115.896 182.097 115.595 181.792 115.595 181.235C115.595 180.644 115.952 180.348 116.667 180.348H118.091C118.841 180.348 119.216 180.646 119.216 181.244C119.216 181.818 118.911 182.12 118.302 182.149V189.198H119.875V180.348H121.782C122.597 180.348 123.004 180.646 123.004 181.244C123.004 181.561 122.898 181.792 122.688 181.938C122.482 182.079 122.146 182.149 121.677 182.149V189.198C122.421 189.198 122.793 189.5 122.793 190.104C122.793 190.373 122.699 190.59 122.512 190.754C122.324 190.918 122.081 191 121.782 191H113.38C112.577 191 112.176 190.701 112.176 190.104C112.176 189.547 112.495 189.245 113.134 189.198V182.149C112.665 182.149 112.325 182.082 112.114 181.947C111.909 181.807 111.807 181.572 111.807 181.244C111.807 180.646 112.208 180.348 113.011 180.348H114.936V189.198H116.5ZM130.413 188.1H126.036L125.597 189.198H126.036C126.47 189.198 126.777 189.283 126.959 189.453C127.146 189.617 127.24 189.834 127.24 190.104C127.24 190.367 127.146 190.584 126.959 190.754C126.777 190.918 126.47 191 126.036 191H123.61C123.177 191 122.869 190.918 122.688 190.754C122.5 190.584 122.406 190.364 122.406 190.095C122.406 189.825 122.503 189.605 122.696 189.436C122.89 189.266 123.209 189.187 123.654 189.198L126.484 182.149H125.307C124.873 182.149 124.562 182.067 124.375 181.903C124.193 181.733 124.103 181.514 124.103 181.244C124.103 180.975 124.193 180.758 124.375 180.594C124.562 180.424 124.873 180.339 125.307 180.339L129.2 180.348L132.786 189.198C133.208 189.198 133.486 189.245 133.621 189.339C133.891 189.532 134.025 189.787 134.025 190.104C134.025 190.367 133.935 190.584 133.753 190.754C133.571 190.918 133.264 191 132.83 191H130.404C129.971 191 129.66 190.918 129.473 190.754C129.291 190.584 129.2 190.364 129.2 190.095C129.2 189.831 129.291 189.617 129.473 189.453C129.66 189.283 129.971 189.198 130.404 189.198H130.844L130.413 188.1ZM129.666 186.298L128.216 182.729L126.757 186.298H129.666ZM138.271 189.198H139.325C140.128 189.198 140.529 189.5 140.529 190.104C140.529 190.701 140.128 191 139.325 191H135.423C134.62 191 134.219 190.698 134.219 190.095C134.219 189.497 134.62 189.198 135.423 189.198H136.469V182.149H135.423C134.62 182.149 134.219 181.848 134.219 181.244C134.219 180.646 134.62 180.348 135.423 180.348H143.957V183.854C143.957 184.651 143.658 185.05 143.061 185.05C142.457 185.05 142.155 184.651 142.155 183.854V182.149H138.271V189.198ZM163.284 179.627V186.676C163.665 186.676 163.946 186.761 164.128 186.931C164.31 187.095 164.4 187.309 164.4 187.572C164.4 187.836 164.307 188.053 164.119 188.223C163.938 188.393 163.659 188.478 163.284 188.478V189.198C163.665 189.198 163.946 189.283 164.128 189.453C164.31 189.623 164.4 189.84 164.4 190.104C164.4 190.367 164.307 190.584 164.119 190.754C163.938 190.918 163.63 191 163.196 191H160.779C160.346 191 160.035 190.918 159.848 190.754C159.666 190.584 159.575 190.364 159.575 190.095C159.575 189.831 159.666 189.617 159.848 189.453C160.035 189.283 160.346 189.198 160.779 189.198H161.482V188.478H156.587V186.975L160.902 179.627H163.284ZM161.482 186.676V182.246L158.872 186.676H161.482Z" fill="#26484A"/>
<path d="M125.397 119.127H124.81V119.714V124.355V124.942H125.397H130.036H130.623V124.355V119.714V119.127H130.036H125.397ZM131.135 118.614V125.455H124.297V118.614H131.135Z" fill="#26484A" stroke="#26484A" stroke-width="1.17394"/>
<path d="M125.397 106.471H124.81V107.058V111.699V112.286H125.397H130.036H130.623V111.699V107.058V106.471H130.036H125.397ZM131.135 105.958V112.799H124.297V105.958H131.135Z" fill="#26484A" stroke="#26484A" stroke-width="1.17394"/>
<path d="M125.398 93.8149H124.811V94.4019V99.0425V99.6295H125.398H130.036H130.623V99.0425V94.4019V93.8149H130.036H125.398ZM131.136 93.3014V100.143H124.298V93.3014H131.136Z" fill="#26484A" stroke="#26484A" stroke-width="1.17394"/>
<rect x="116.998" y="85.9979" width="40.4131" height="52.0043" stroke="#26484A" stroke-width="1.99571"/>
<path d="M158.414 99.6356C158.496 99.5569 158.606 99.5142 158.72 99.5168C158.834 99.5195 158.942 99.5673 159.021 99.6496C159.099 99.7321 159.142 99.8424 159.139 99.9564C159.137 100.07 159.089 100.179 159.007 100.257L159.007 100.257L153.705 105.32L153.705 105.32C153.626 105.396 153.519 105.438 153.409 105.439C153.299 105.439 153.193 105.396 153.113 105.32L150.462 102.789L150.461 102.788C150.42 102.749 150.387 102.702 150.364 102.65C150.341 102.599 150.328 102.543 150.327 102.486C150.325 102.43 150.335 102.373 150.355 102.32C150.376 102.268 150.406 102.219 150.445 102.178C150.484 102.137 150.531 102.105 150.583 102.082C150.635 102.059 150.69 102.047 150.747 102.046C150.803 102.044 150.86 102.054 150.912 102.075C150.965 102.096 151.013 102.126 151.054 102.166L151.055 102.167L153.206 104.221L153.409 104.415L153.612 104.221L158.414 99.6356ZM158.414 99.6356L158.211 99.4233L158.414 99.6356ZM159.445 99.2445L159.445 99.2445C159.259 99.0494 159.003 98.9363 158.734 98.93C158.464 98.9238 158.203 99.0249 158.008 99.211L158.008 99.211L153.409 103.603L151.461 101.743C151.461 101.743 151.461 101.743 151.461 101.743C151.364 101.65 151.251 101.577 151.126 101.528C151.002 101.48 150.869 101.456 150.735 101.459C150.601 101.461 150.469 101.491 150.346 101.545C150.224 101.599 150.113 101.676 150.021 101.773C149.928 101.87 149.856 101.984 149.808 102.109C149.759 102.234 149.736 102.367 149.74 102.501C149.743 102.635 149.773 102.767 149.828 102.889C149.882 103.011 149.96 103.122 150.057 103.214C150.057 103.214 150.058 103.214 150.058 103.214L152.707 105.744L152.707 105.744C152.896 105.925 153.148 106.026 153.409 106.025C153.671 106.025 153.922 105.925 154.111 105.744L159.412 100.682C159.607 100.496 159.72 100.24 159.726 99.9701C159.732 99.7006 159.632 99.4396 159.445 99.2445ZM162.979 102.116V102.116C162.979 100.485 162.496 98.8898 161.59 97.5334C160.684 96.1769 159.396 95.1196 157.89 94.4952C156.383 93.8709 154.725 93.7075 153.126 94.0258C151.526 94.3441 150.057 95.1298 148.904 96.2834C147.751 97.437 146.966 98.9068 146.648 100.507C146.329 102.107 146.493 103.765 147.117 105.273C147.741 106.78 148.798 108.068 150.154 108.975C151.509 109.881 153.104 110.365 154.734 110.365H154.735C156.921 110.362 159.016 109.492 160.562 107.946C162.108 106.4 162.977 104.303 162.979 102.116ZM161.102 97.8594C161.943 99.1192 162.392 100.6 162.393 102.116C162.39 104.147 161.583 106.095 160.147 107.531C158.711 108.968 156.764 109.775 154.734 109.778C153.22 109.778 151.739 109.328 150.48 108.487C149.22 107.645 148.239 106.448 147.659 105.048C147.079 103.648 146.928 102.108 147.223 100.621C147.519 99.135 148.248 97.7698 149.319 96.6983C150.39 95.6268 151.755 94.8971 153.24 94.6015C154.726 94.3059 156.266 94.4576 157.665 95.0375C159.064 95.6174 160.26 96.5994 161.102 97.8594ZM163.838 102.116C163.838 103.918 163.304 105.679 162.304 107.176C161.304 108.674 159.882 109.842 158.218 110.531C156.555 111.22 154.724 111.401 152.958 111.049C151.192 110.698 149.57 109.83 148.297 108.557C147.024 107.283 146.157 105.66 145.805 103.893C145.454 102.126 145.634 100.295 146.323 98.6305C147.012 96.9662 148.179 95.5437 149.677 94.5429C151.174 93.5421 152.934 93.0079 154.734 93.0079C157.148 93.0107 159.462 93.9712 161.169 95.6787C162.875 97.3863 163.836 99.7015 163.838 102.116Z" fill="#F7F2E6" stroke="#26484A" stroke-width="0.586972"/>
<path d="M152.923 104.519L153.409 104.983L153.895 104.519L158.697 99.9327C158.701 99.9293 158.706 99.9275 158.711 99.9276C158.715 99.9277 158.72 99.9298 158.723 99.9333C158.727 99.9369 158.729 99.9417 158.729 99.9468C158.728 99.9519 158.726 99.9567 158.723 99.9601L158.723 99.9601L153.422 105.023L153.422 105.023C153.418 105.026 153.414 105.028 153.409 105.028C153.404 105.028 153.4 105.026 153.396 105.023L150.746 102.491L150.746 102.491L150.743 102.489C150.741 102.487 150.74 102.485 150.739 102.483C150.738 102.481 150.737 102.478 150.737 102.476C150.737 102.473 150.738 102.471 150.739 102.468C150.74 102.466 150.741 102.464 150.743 102.462C150.744 102.46 150.746 102.459 150.749 102.458C150.751 102.457 150.753 102.456 150.755 102.456C150.758 102.456 150.76 102.457 150.763 102.458L150.763 102.458C150.765 102.458 150.767 102.46 150.769 102.461L150.771 102.464L152.923 104.519ZM163.39 102.117V102.116C163.39 100.403 162.883 98.7292 161.932 97.3052C160.981 95.8811 159.629 94.7711 158.047 94.1157C156.465 93.4602 154.725 93.2887 153.046 93.6229C151.366 93.957 149.824 94.7818 148.613 95.9929C147.403 97.204 146.579 98.747 146.245 100.427C145.911 102.106 146.082 103.848 146.737 105.43C147.392 107.012 148.502 108.365 149.925 109.316C151.349 110.268 153.022 110.776 154.734 110.776H154.735C157.03 110.773 159.23 109.86 160.853 108.237C162.475 106.613 163.388 104.412 163.39 102.117ZM163.427 102.117C163.427 103.837 162.917 105.518 161.962 106.948C161.007 108.378 159.649 109.493 158.061 110.151C156.473 110.81 154.725 110.982 153.038 110.646C151.352 110.311 149.803 109.482 148.588 108.266C147.372 107.05 146.544 105.5 146.208 103.813C145.873 102.126 146.045 100.377 146.703 98.7876C147.361 97.1984 148.475 95.8401 149.905 94.8845C151.334 93.9289 153.015 93.4189 154.734 93.4188C157.039 93.4215 159.248 94.3387 160.878 95.9692C162.508 97.5998 163.425 99.8107 163.427 102.117Z" stroke="#26484A" stroke-width="1.40873"/>
<rect y="236" width="280" height="4" fill="#26484A"/>
</svg>
