<svg width="280" height="246" viewBox="0 0 280 246" fill="none" xmlns="http://www.w3.org/2000/svg">
<rect opacity="0.2" x="3" y="2" width="273" height="240" stroke="#F7F2E6" stroke-width="4"/>
<path d="M97.5 185.198V178.149C96.8965 178.097 96.5947 177.792 96.5947 177.235C96.5947 176.644 96.9521 176.348 97.667 176.348H99.0908C99.8408 176.348 100.216 176.646 100.216 177.244C100.216 177.818 99.9111 178.12 99.3018 178.149V185.198H100.875V176.348H102.782C103.597 176.348 104.004 176.646 104.004 177.244C104.004 177.561 103.898 177.792 103.688 177.938C103.482 178.079 103.146 178.149 102.677 178.149V185.198C103.421 185.198 103.793 185.5 103.793 186.104C103.793 186.373 103.699 186.59 103.512 186.754C103.324 186.918 103.081 187 102.782 187H94.3799C93.5771 187 93.1758 186.701 93.1758 186.104C93.1758 185.547 93.4951 185.245 94.1338 185.198V178.149C93.665 178.149 93.3252 178.082 93.1143 177.947C92.9092 177.807 92.8066 177.572 92.8066 177.244C92.8066 176.646 93.208 176.348 94.0107 176.348H95.9355V185.198H97.5ZM113.213 184.1H108.836L108.397 185.198H108.836C109.27 185.198 109.577 185.283 109.759 185.453C109.946 185.617 110.04 185.834 110.04 186.104C110.04 186.367 109.946 186.584 109.759 186.754C109.577 186.918 109.27 187 108.836 187H106.41C105.977 187 105.669 186.918 105.488 186.754C105.3 186.584 105.206 186.364 105.206 186.095C105.206 185.825 105.303 185.605 105.496 185.436C105.69 185.266 106.009 185.187 106.454 185.198L109.284 178.149H108.107C107.673 178.149 107.363 178.067 107.175 177.903C106.993 177.733 106.903 177.514 106.903 177.244C106.903 176.975 106.993 176.758 107.175 176.594C107.363 176.424 107.673 176.339 108.107 176.339L112 176.348L115.586 185.198C116.008 185.198 116.286 185.245 116.421 185.339C116.691 185.532 116.825 185.787 116.825 186.104C116.825 186.367 116.735 186.584 116.553 186.754C116.371 186.918 116.064 187 115.63 187H113.204C112.771 187 112.46 186.918 112.273 186.754C112.091 186.584 112 186.364 112 186.095C112 185.831 112.091 185.617 112.273 185.453C112.46 185.283 112.771 185.198 113.204 185.198H113.644L113.213 184.1ZM112.466 182.298L111.016 178.729L109.557 182.298H112.466ZM122.871 185.198H123.925C124.728 185.198 125.129 185.5 125.129 186.104C125.129 186.701 124.728 187 123.925 187H120.023C119.22 187 118.819 186.698 118.819 186.095C118.819 185.497 119.22 185.198 120.023 185.198H121.069V178.149H120.023C119.22 178.149 118.819 177.848 118.819 177.244C118.819 176.646 119.22 176.348 120.023 176.348H128.557V179.854C128.557 180.651 128.258 181.05 127.661 181.05C127.057 181.05 126.755 180.651 126.755 179.854V178.149H122.871V185.198ZM147.16 185.198H151.106C151.323 185.022 151.528 184.935 151.721 184.935C151.997 184.935 152.214 185.025 152.372 185.207C152.536 185.389 152.618 185.699 152.618 186.139V187H144.409V185.093C147.655 182.415 149.615 180.692 150.289 179.925C150.629 179.532 150.799 179.16 150.799 178.809C150.799 178.369 150.605 177.982 150.219 177.648C149.838 177.309 149.328 177.139 148.689 177.139C148.045 177.139 147.509 177.326 147.081 177.701C146.858 177.9 146.679 178.196 146.545 178.589C146.463 178.835 146.348 179.011 146.202 179.116C146.061 179.222 145.886 179.274 145.675 179.274C145.429 179.274 145.215 179.187 145.033 179.011C144.857 178.835 144.769 178.63 144.769 178.396C144.769 178.044 144.93 177.604 145.253 177.077C145.581 176.55 146.055 176.128 146.677 175.812C147.304 175.495 147.983 175.337 148.716 175.337C149.852 175.337 150.784 175.683 151.511 176.374C152.237 177.06 152.6 177.892 152.6 178.87C152.6 179.368 152.495 179.831 152.284 180.259C152.079 180.681 151.581 181.267 150.79 182.017C150.169 182.608 148.959 183.669 147.16 185.198Z" fill="#26484A"/>
<mask id="path-3-inside-1_764_2644" fill="white">
<path d="M144.526 107.2L139.857 99.2182C139.317 98.2926 138.516 97.5413 137.553 97.0553C136.589 96.5694 135.503 96.3697 134.426 96.4804C133.35 96.5911 132.329 97.0075 131.488 97.6791C130.646 98.3506 130.02 99.2486 129.685 100.264L124.765 91.8539C124.223 90.9268 123.421 90.1749 122.454 89.6894C121.488 89.2039 120.4 89.0056 119.322 89.1187C118.243 89.2317 117.222 89.6513 116.38 90.3263C115.539 91.0014 114.914 91.9029 114.582 92.9216C113.765 91.7413 112.517 90.9192 111.099 90.6279C109.681 90.3366 108.203 90.5987 106.977 91.3593C105.751 92.1198 104.871 93.3196 104.521 94.7068C104.172 96.0941 104.381 97.5609 105.104 98.7993L106.754 101.619C105.695 101.399 104.595 101.486 103.585 101.87C102.576 102.255 101.7 102.919 101.065 103.784C100.431 104.648 100.063 105.676 100.007 106.742C99.9518 107.809 100.21 108.868 100.752 109.793L110.558 126.554C111.843 128.76 113.557 130.693 115.6 132.245C117.643 133.796 119.977 134.935 122.467 135.595C124.956 136.256 127.554 136.426 130.11 136.095C132.666 135.764 135.131 134.938 137.364 133.666C139.597 132.394 141.553 130.7 143.122 128.681C144.691 126.661 145.841 124.357 146.506 121.898C147.171 119.44 147.339 116.877 146.999 114.354C146.659 111.832 145.819 109.401 144.526 107.2ZM144.681 121.409C143.773 124.754 141.88 127.759 139.241 130.043C136.603 132.326 133.337 133.787 129.858 134.239C126.378 134.691 122.841 134.114 119.694 132.582C116.546 131.051 113.929 128.632 112.175 125.632L102.369 108.871C101.874 108.024 101.739 107.018 101.996 106.073C102.252 105.129 102.878 104.324 103.736 103.835C104.594 103.346 105.614 103.214 106.571 103.467C107.528 103.72 108.344 104.338 108.839 105.184L113.976 113.964C114.005 114.012 114.038 114.058 114.075 114.1C114.084 114.11 114.093 114.12 114.102 114.13C114.138 114.169 114.177 114.205 114.219 114.237L114.222 114.239C114.265 114.271 114.311 114.298 114.359 114.322C114.371 114.328 114.383 114.334 114.395 114.339C114.44 114.36 114.487 114.378 114.536 114.391L114.545 114.394C114.596 114.407 114.648 114.416 114.701 114.42C114.714 114.421 114.727 114.422 114.741 114.422C114.756 114.423 114.771 114.425 114.786 114.425C114.822 114.425 114.858 114.423 114.893 114.418C114.896 114.418 114.899 114.418 114.902 114.418C114.955 114.411 115.009 114.399 115.06 114.383L115.098 114.37C115.227 114.326 115.346 114.254 115.444 114.159C115.542 114.065 115.617 113.95 115.664 113.823C115.712 113.695 115.73 113.56 115.718 113.425C115.706 113.29 115.663 113.159 115.593 113.043L110.457 104.263V104.262L106.721 97.8777C106.226 97.0309 106.092 96.0247 106.348 95.0802C106.605 94.1358 107.231 93.3306 108.089 92.8417C108.947 92.3529 109.966 92.2204 110.923 92.4735C111.88 92.7265 112.696 93.3444 113.192 94.1911L121.13 107.76C121.19 107.866 121.272 107.958 121.369 108.033C121.467 108.107 121.578 108.162 121.697 108.194C121.816 108.226 121.94 108.234 122.062 108.218C122.184 108.203 122.302 108.163 122.408 108.103C122.515 108.042 122.609 107.961 122.683 107.864C122.758 107.768 122.813 107.658 122.844 107.54C122.876 107.423 122.883 107.3 122.867 107.18C122.85 107.059 122.809 106.943 122.747 106.838L116.677 96.4621C116.181 95.6153 116.047 94.609 116.304 93.6645C116.56 92.7201 117.186 91.9149 118.044 91.426C118.902 90.9371 119.922 90.8047 120.879 91.0577C121.836 91.3108 122.652 91.9287 123.147 92.7755L130.151 104.747L130.151 104.748L132.04 107.976C129.946 109.435 128.481 111.613 127.931 114.084C127.381 116.554 127.787 119.138 129.068 121.329C129.128 121.435 129.209 121.529 129.307 121.605C129.404 121.681 129.516 121.736 129.635 121.769C129.755 121.802 129.879 121.81 130.002 121.795C130.125 121.779 130.244 121.74 130.351 121.679C130.458 121.618 130.552 121.536 130.627 121.439C130.702 121.341 130.757 121.23 130.788 121.112C130.819 120.994 130.826 120.87 130.808 120.749C130.791 120.628 130.749 120.512 130.685 120.407C130.133 119.464 129.775 118.422 129.631 117.342C129.487 116.262 129.56 115.165 129.846 114.113C130.131 113.06 130.624 112.074 131.296 111.21C131.968 110.346 132.806 109.621 133.762 109.076C133.816 109.045 133.866 109.009 133.913 108.969C133.939 108.944 133.964 108.918 133.987 108.89C134.003 108.872 134.022 108.856 134.037 108.837C134.062 108.803 134.084 108.768 134.104 108.73C134.113 108.715 134.125 108.701 134.133 108.684C134.186 108.577 134.218 108.459 134.226 108.339C134.228 108.32 134.225 108.301 134.225 108.281C134.226 108.241 134.225 108.2 134.221 108.16C134.218 108.138 134.21 108.117 134.206 108.095C134.2 108.057 134.191 108.02 134.18 107.984C134.16 107.926 134.135 107.87 134.104 107.817L131.769 103.826C131.284 102.98 131.158 101.979 131.417 101.041C131.676 100.104 132.3 99.3051 133.153 98.8192C134.006 98.3333 135.019 98.1995 135.971 98.4468C136.924 98.6941 137.739 99.3026 138.239 100.14L142.908 108.121C144.079 110.11 144.839 112.309 145.143 114.59C145.448 116.871 145.291 119.188 144.681 121.409ZM113.624 138.603C113.554 138.703 113.465 138.788 113.362 138.853C113.259 138.919 113.144 138.964 113.023 138.985C112.902 139.007 112.778 139.005 112.658 138.979C112.539 138.953 112.425 138.905 112.324 138.836C109.042 136.594 106.308 133.658 104.321 130.241C104.199 130.03 104.167 129.779 104.232 129.544C104.297 129.309 104.453 129.109 104.666 128.988C104.88 128.866 105.133 128.833 105.372 128.895C105.61 128.957 105.814 129.11 105.939 129.32C107.788 132.5 110.333 135.234 113.389 137.321C113.592 137.46 113.731 137.674 113.775 137.914C113.82 138.155 113.765 138.402 113.624 138.603ZM134.081 89.9207C134.081 89.6764 134.179 89.4423 134.354 89.2696C134.529 89.097 134.767 89 135.014 89H135.015C137.309 89.0052 139.561 89.6038 141.547 90.7359C143.534 91.8681 145.184 93.4943 146.335 95.4524C146.399 95.5573 146.441 95.6736 146.458 95.7947C146.476 95.9157 146.469 96.039 146.438 96.1574C146.407 96.2758 146.352 96.3868 146.277 96.4841C146.202 96.5815 146.108 96.6631 146.001 96.7242C145.894 96.7854 145.775 96.8248 145.652 96.8403C145.529 96.8558 145.405 96.847 145.285 96.8144C145.166 96.7818 145.054 96.7261 144.957 96.6505C144.859 96.5749 144.778 96.4809 144.718 96.374C143.731 94.6954 142.316 93.3014 140.613 92.331C138.911 91.3605 136.98 90.8476 135.013 90.8433C134.891 90.8432 134.769 90.8192 134.656 90.7728C134.543 90.7263 134.44 90.6584 134.353 90.5727C134.267 90.487 134.198 90.3853 134.151 90.2735C134.104 90.1616 134.08 90.0417 134.081 89.9207Z"/>
</mask>
<path d="M144.526 107.2L139.857 99.2182C139.317 98.2926 138.516 97.5413 137.553 97.0553C136.589 96.5694 135.503 96.3697 134.426 96.4804C133.35 96.5911 132.329 97.0075 131.488 97.6791C130.646 98.3506 130.02 99.2486 129.685 100.264L124.765 91.8539C124.223 90.9268 123.421 90.1749 122.454 89.6894C121.488 89.2039 120.4 89.0056 119.322 89.1187C118.243 89.2317 117.222 89.6513 116.38 90.3263C115.539 91.0014 114.914 91.9029 114.582 92.9216C113.765 91.7413 112.517 90.9192 111.099 90.6279C109.681 90.3366 108.203 90.5987 106.977 91.3593C105.751 92.1198 104.871 93.3196 104.521 94.7068C104.172 96.0941 104.381 97.5609 105.104 98.7993L106.754 101.619C105.695 101.399 104.595 101.486 103.585 101.87C102.576 102.255 101.7 102.919 101.065 103.784C100.431 104.648 100.063 105.676 100.007 106.742C99.9518 107.809 100.21 108.868 100.752 109.793L110.558 126.554C111.843 128.76 113.557 130.693 115.6 132.245C117.643 133.796 119.977 134.935 122.467 135.595C124.956 136.256 127.554 136.426 130.11 136.095C132.666 135.764 135.131 134.938 137.364 133.666C139.597 132.394 141.553 130.7 143.122 128.681C144.691 126.661 145.841 124.357 146.506 121.898C147.171 119.44 147.339 116.877 146.999 114.354C146.659 111.832 145.819 109.401 144.526 107.2ZM144.681 121.409C143.773 124.754 141.88 127.759 139.241 130.043C136.603 132.326 133.337 133.787 129.858 134.239C126.378 134.691 122.841 134.114 119.694 132.582C116.546 131.051 113.929 128.632 112.175 125.632L102.369 108.871C101.874 108.024 101.739 107.018 101.996 106.073C102.252 105.129 102.878 104.324 103.736 103.835C104.594 103.346 105.614 103.214 106.571 103.467C107.528 103.72 108.344 104.338 108.839 105.184L113.976 113.964C114.005 114.012 114.038 114.058 114.075 114.1C114.084 114.11 114.093 114.12 114.102 114.13C114.138 114.169 114.177 114.205 114.219 114.237L114.222 114.239C114.265 114.271 114.311 114.298 114.359 114.322C114.371 114.328 114.383 114.334 114.395 114.339C114.44 114.36 114.487 114.378 114.536 114.391L114.545 114.394C114.596 114.407 114.648 114.416 114.701 114.42C114.714 114.421 114.727 114.422 114.741 114.422C114.756 114.423 114.771 114.425 114.786 114.425C114.822 114.425 114.858 114.423 114.893 114.418C114.896 114.418 114.899 114.418 114.902 114.418C114.955 114.411 115.009 114.399 115.06 114.383L115.098 114.37C115.227 114.326 115.346 114.254 115.444 114.159C115.542 114.065 115.617 113.95 115.664 113.823C115.712 113.695 115.73 113.56 115.718 113.425C115.706 113.29 115.663 113.159 115.593 113.043L110.457 104.263V104.262L106.721 97.8777C106.226 97.0309 106.092 96.0247 106.348 95.0802C106.605 94.1358 107.231 93.3306 108.089 92.8417C108.947 92.3529 109.966 92.2204 110.923 92.4735C111.88 92.7265 112.696 93.3444 113.192 94.1911L121.13 107.76C121.19 107.866 121.272 107.958 121.369 108.033C121.467 108.107 121.578 108.162 121.697 108.194C121.816 108.226 121.94 108.234 122.062 108.218C122.184 108.203 122.302 108.163 122.408 108.103C122.515 108.042 122.609 107.961 122.683 107.864C122.758 107.768 122.813 107.658 122.844 107.54C122.876 107.423 122.883 107.3 122.867 107.18C122.85 107.059 122.809 106.943 122.747 106.838L116.677 96.4621C116.181 95.6153 116.047 94.609 116.304 93.6645C116.56 92.7201 117.186 91.9149 118.044 91.426C118.902 90.9371 119.922 90.8047 120.879 91.0577C121.836 91.3108 122.652 91.9287 123.147 92.7755L130.151 104.747L130.151 104.748L132.04 107.976C129.946 109.435 128.481 111.613 127.931 114.084C127.381 116.554 127.787 119.138 129.068 121.329C129.128 121.435 129.209 121.529 129.307 121.605C129.404 121.681 129.516 121.736 129.635 121.769C129.755 121.802 129.879 121.81 130.002 121.795C130.125 121.779 130.244 121.74 130.351 121.679C130.458 121.618 130.552 121.536 130.627 121.439C130.702 121.341 130.757 121.23 130.788 121.112C130.819 120.994 130.826 120.87 130.808 120.749C130.791 120.628 130.749 120.512 130.685 120.407C130.133 119.464 129.775 118.422 129.631 117.342C129.487 116.262 129.56 115.165 129.846 114.113C130.131 113.06 130.624 112.074 131.296 111.21C131.968 110.346 132.806 109.621 133.762 109.076C133.816 109.045 133.866 109.009 133.913 108.969C133.939 108.944 133.964 108.918 133.987 108.89C134.003 108.872 134.022 108.856 134.037 108.837C134.062 108.803 134.084 108.768 134.104 108.73C134.113 108.715 134.125 108.701 134.133 108.684C134.186 108.577 134.218 108.459 134.226 108.339C134.228 108.32 134.225 108.301 134.225 108.281C134.226 108.241 134.225 108.2 134.221 108.16C134.218 108.138 134.21 108.117 134.206 108.095C134.2 108.057 134.191 108.02 134.18 107.984C134.16 107.926 134.135 107.87 134.104 107.817L131.769 103.826C131.284 102.98 131.158 101.979 131.417 101.041C131.676 100.104 132.3 99.3051 133.153 98.8192C134.006 98.3333 135.019 98.1995 135.971 98.4468C136.924 98.6941 137.739 99.3026 138.239 100.14L142.908 108.121C144.079 110.11 144.839 112.309 145.143 114.59C145.448 116.871 145.291 119.188 144.681 121.409ZM113.624 138.603C113.554 138.703 113.465 138.788 113.362 138.853C113.259 138.919 113.144 138.964 113.023 138.985C112.902 139.007 112.778 139.005 112.658 138.979C112.539 138.953 112.425 138.905 112.324 138.836C109.042 136.594 106.308 133.658 104.321 130.241C104.199 130.03 104.167 129.779 104.232 129.544C104.297 129.309 104.453 129.109 104.666 128.988C104.88 128.866 105.133 128.833 105.372 128.895C105.61 128.957 105.814 129.11 105.939 129.32C107.788 132.5 110.333 135.234 113.389 137.321C113.592 137.46 113.731 137.674 113.775 137.914C113.82 138.155 113.765 138.402 113.624 138.603ZM134.081 89.9207C134.081 89.6764 134.179 89.4423 134.354 89.2696C134.529 89.097 134.767 89 135.014 89H135.015C137.309 89.0052 139.561 89.6038 141.547 90.7359C143.534 91.8681 145.184 93.4943 146.335 95.4524C146.399 95.5573 146.441 95.6736 146.458 95.7947C146.476 95.9157 146.469 96.039 146.438 96.1574C146.407 96.2758 146.352 96.3868 146.277 96.4841C146.202 96.5815 146.108 96.6631 146.001 96.7242C145.894 96.7854 145.775 96.8248 145.652 96.8403C145.529 96.8558 145.405 96.847 145.285 96.8144C145.166 96.7818 145.054 96.7261 144.957 96.6505C144.859 96.5749 144.778 96.4809 144.718 96.374C143.731 94.6954 142.316 93.3014 140.613 92.331C138.911 91.3605 136.98 90.8476 135.013 90.8433C134.891 90.8432 134.769 90.8192 134.656 90.7728C134.543 90.7263 134.44 90.6584 134.353 90.5727C134.267 90.487 134.198 90.3853 134.151 90.2735C134.104 90.1616 134.08 90.0417 134.081 89.9207Z" fill="#26484A" stroke="#26484A" stroke-width="0.117925" mask="url(#path-3-inside-1_764_2644)"/>
<rect y="238" width="248" height="4" fill="#26484A"/>
</svg>
