<svg width="312" height="244" viewBox="0 0 312 244" fill="none" xmlns="http://www.w3.org/2000/svg">
<path opacity="0.2" d="M279.542 242H2.59225L33.9346 122.507L34.0677 122L33.9346 121.493L2.59224 2H279.542L309.937 122L279.542 242Z" fill="#D8D8D8" stroke="#F7F2E6" stroke-width="4"/>
<path d="M141.397 119.127H140.81V119.714V124.355V124.942H141.397H146.035H146.622V124.355V119.714V119.127H146.035H141.397ZM147.135 118.614V125.455H140.297V118.614H147.135Z" fill="#87BCC0" stroke="#87BCC0" stroke-width="1.17394"/>
<path d="M141.397 106.471H140.81V107.058V111.699V112.286H141.397H146.035H146.622V111.699V107.058V106.471H146.035H141.397ZM147.135 105.958V112.799H140.297V105.958H147.135Z" fill="#87BCC0" stroke="#87BCC0" stroke-width="1.17394"/>
<path d="M141.397 93.8149H140.81V94.4019V99.0425V99.6295H141.397H146.035H146.622V99.0425V94.4019V93.8149H146.035H141.397ZM147.135 93.3014V100.143H140.297V93.3014H147.135Z" fill="#87BCC0" stroke="#87BCC0" stroke-width="1.17394"/>
<rect x="132.998" y="85.9979" width="40.4131" height="52.0043" stroke="#87BCC0" stroke-width="1.99571"/>
<path d="M174.414 99.6356C174.496 99.5569 174.606 99.5142 174.72 99.5168C174.834 99.5195 174.942 99.5673 175.021 99.6496C175.099 99.7321 175.142 99.8424 175.139 99.9564C175.137 100.07 175.089 100.179 175.007 100.257L175.007 100.257L169.705 105.32L169.705 105.32C169.626 105.396 169.519 105.438 169.409 105.439C169.299 105.439 169.193 105.396 169.113 105.32L166.462 102.789L166.461 102.788C166.42 102.749 166.387 102.702 166.364 102.65C166.341 102.599 166.328 102.543 166.327 102.486C166.325 102.43 166.335 102.373 166.355 102.32C166.376 102.268 166.406 102.219 166.445 102.178C166.484 102.137 166.531 102.105 166.583 102.082C166.635 102.059 166.69 102.047 166.747 102.046C166.803 102.044 166.86 102.054 166.912 102.075C166.965 102.096 167.013 102.126 167.054 102.166L167.055 102.167L169.206 104.221L169.409 104.415L169.612 104.221L174.414 99.6356ZM174.414 99.6356L174.211 99.4233L174.414 99.6356ZM175.445 99.2445L175.445 99.2445C175.259 99.0494 175.003 98.9363 174.734 98.93C174.464 98.9238 174.203 99.0249 174.008 99.211L174.008 99.211L169.409 103.603L167.461 101.743C167.461 101.743 167.461 101.743 167.461 101.743C167.364 101.65 167.251 101.577 167.126 101.528C167.002 101.48 166.869 101.456 166.735 101.459C166.601 101.461 166.469 101.491 166.346 101.545C166.224 101.599 166.113 101.676 166.021 101.773C165.928 101.87 165.856 101.984 165.808 102.109C165.759 102.234 165.736 102.367 165.74 102.501C165.743 102.635 165.773 102.767 165.828 102.889C165.882 103.011 165.96 103.122 166.057 103.214C166.057 103.214 166.058 103.214 166.058 103.214L168.707 105.744L168.707 105.744C168.896 105.925 169.148 106.026 169.409 106.025C169.671 106.025 169.922 105.925 170.111 105.744L175.412 100.682C175.607 100.496 175.72 100.24 175.726 99.9701C175.732 99.7006 175.632 99.4396 175.445 99.2445ZM178.979 102.116V102.116C178.979 100.485 178.496 98.8898 177.59 97.5334C176.684 96.1769 175.396 95.1196 173.89 94.4952C172.383 93.8709 170.725 93.7075 169.126 94.0258C167.526 94.3441 166.057 95.1298 164.904 96.2834C163.751 97.437 162.966 98.9068 162.648 100.507C162.329 102.107 162.493 103.765 163.117 105.273C163.741 106.78 164.798 108.068 166.154 108.975C167.509 109.881 169.104 110.365 170.734 110.365H170.735C172.921 110.362 175.016 109.492 176.562 107.946C178.108 106.4 178.977 104.303 178.979 102.116ZM177.102 97.8594C177.943 99.1192 178.392 100.6 178.393 102.116C178.39 104.147 177.583 106.095 176.147 107.531C174.711 108.968 172.764 109.775 170.734 109.778C169.22 109.778 167.739 109.328 166.48 108.487C165.22 107.645 164.239 106.448 163.659 105.048C163.079 103.648 162.928 102.108 163.223 100.621C163.519 99.135 164.248 97.7698 165.319 96.6983C166.39 95.6268 167.755 94.8971 169.24 94.6015C170.726 94.3059 172.266 94.4576 173.665 95.0375C175.064 95.6174 176.26 96.5994 177.102 97.8594ZM179.838 102.116C179.838 103.918 179.304 105.679 178.304 107.176C177.304 108.674 175.882 109.842 174.218 110.531C172.555 111.22 170.724 111.401 168.958 111.049C167.192 110.698 165.57 109.83 164.297 108.557C163.024 107.283 162.157 105.66 161.805 103.893C161.454 102.126 161.634 100.295 162.323 98.6305C163.012 96.9662 164.179 95.5437 165.677 94.5429C167.174 93.5421 168.934 93.0079 170.734 93.0079C173.148 93.0107 175.462 93.9712 177.169 95.6787C178.875 97.3863 179.836 99.7015 179.838 102.116Z" fill="#F7F2E6" stroke="#87BCC0" stroke-width="0.586972"/>
<path d="M168.923 104.519L169.409 104.983L169.895 104.519L174.697 99.9327C174.701 99.9293 174.706 99.9275 174.711 99.9276C174.715 99.9277 174.72 99.9298 174.723 99.9333C174.727 99.9369 174.729 99.9417 174.729 99.9468C174.728 99.9519 174.726 99.9567 174.723 99.9601L174.723 99.9601L169.422 105.023L169.422 105.023C169.418 105.026 169.414 105.028 169.409 105.028C169.404 105.028 169.4 105.026 169.396 105.023L166.746 102.491L166.746 102.491L166.743 102.489C166.741 102.487 166.74 102.485 166.739 102.483C166.738 102.481 166.737 102.478 166.737 102.476C166.737 102.473 166.738 102.471 166.739 102.468C166.74 102.466 166.741 102.464 166.743 102.462C166.744 102.46 166.746 102.459 166.749 102.458C166.751 102.457 166.753 102.456 166.755 102.456C166.758 102.456 166.76 102.457 166.763 102.458L166.763 102.458C166.765 102.458 166.767 102.46 166.769 102.461L166.771 102.464L168.923 104.519ZM179.39 102.117V102.116C179.39 100.403 178.883 98.7292 177.932 97.3052C176.981 95.8811 175.629 94.7711 174.047 94.1157C172.465 93.4602 170.725 93.2887 169.046 93.6229C167.366 93.957 165.824 94.7818 164.613 95.9929C163.403 97.204 162.579 98.747 162.245 100.427C161.911 102.106 162.082 103.848 162.737 105.43C163.392 107.012 164.502 108.365 165.925 109.316C167.349 110.268 169.022 110.776 170.734 110.776H170.735C173.03 110.773 175.23 109.86 176.853 108.237C178.475 106.613 179.388 104.412 179.39 102.117ZM179.427 102.117C179.427 103.837 178.917 105.518 177.962 106.948C177.007 108.378 175.649 109.493 174.061 110.151C172.473 110.81 170.725 110.982 169.038 110.646C167.352 110.311 165.803 109.482 164.588 108.266C163.372 107.05 162.544 105.5 162.208 103.813C161.873 102.126 162.045 100.377 162.703 98.7876C163.361 97.1984 164.475 95.8401 165.905 94.8845C167.334 93.9289 169.015 93.4189 170.734 93.4188C173.039 93.4215 175.248 94.3387 176.878 95.9692C178.508 97.5998 179.425 99.8107 179.427 102.117Z" stroke="#87BCC0" stroke-width="1.40873"/>
<path d="M129.5 183.198V176.149C128.896 176.097 128.595 175.792 128.595 175.235C128.595 174.644 128.952 174.348 129.667 174.348H131.091C131.841 174.348 132.216 174.646 132.216 175.244C132.216 175.818 131.911 176.12 131.302 176.149V183.198H132.875V174.348H134.782C135.597 174.348 136.004 174.646 136.004 175.244C136.004 175.561 135.898 175.792 135.688 175.938C135.482 176.079 135.146 176.149 134.677 176.149V183.198C135.421 183.198 135.793 183.5 135.793 184.104C135.793 184.373 135.699 184.59 135.512 184.754C135.324 184.918 135.081 185 134.782 185H126.38C125.577 185 125.176 184.701 125.176 184.104C125.176 183.547 125.495 183.245 126.134 183.198V176.149C125.665 176.149 125.325 176.082 125.114 175.947C124.909 175.807 124.807 175.572 124.807 175.244C124.807 174.646 125.208 174.348 126.011 174.348H127.936V183.198H129.5ZM145.213 182.1H140.836L140.397 183.198H140.836C141.27 183.198 141.577 183.283 141.759 183.453C141.946 183.617 142.04 183.834 142.04 184.104C142.04 184.367 141.946 184.584 141.759 184.754C141.577 184.918 141.27 185 140.836 185H138.41C137.977 185 137.669 184.918 137.488 184.754C137.3 184.584 137.206 184.364 137.206 184.095C137.206 183.825 137.303 183.605 137.496 183.436C137.69 183.266 138.009 183.187 138.454 183.198L141.284 176.149H140.107C139.673 176.149 139.363 176.067 139.175 175.903C138.993 175.733 138.903 175.514 138.903 175.244C138.903 174.975 138.993 174.758 139.175 174.594C139.363 174.424 139.673 174.339 140.107 174.339L144 174.348L147.586 183.198C148.008 183.198 148.286 183.245 148.421 183.339C148.691 183.532 148.825 183.787 148.825 184.104C148.825 184.367 148.735 184.584 148.553 184.754C148.371 184.918 148.064 185 147.63 185H145.204C144.771 185 144.46 184.918 144.273 184.754C144.091 184.584 144 184.364 144 184.095C144 183.831 144.091 183.617 144.273 183.453C144.46 183.283 144.771 183.198 145.204 183.198H145.644L145.213 182.1ZM144.466 180.298L143.016 176.729L141.557 180.298H144.466ZM154.871 183.198H155.925C156.728 183.198 157.129 183.5 157.129 184.104C157.129 184.701 156.728 185 155.925 185H152.023C151.22 185 150.819 184.698 150.819 184.095C150.819 183.497 151.22 183.198 152.023 183.198H153.069V176.149H152.023C151.22 176.149 150.819 175.848 150.819 175.244C150.819 174.646 151.22 174.348 152.023 174.348H160.557V177.854C160.557 178.651 160.258 179.05 159.661 179.05C159.057 179.05 158.755 178.651 158.755 177.854V176.149H154.871V183.198ZM183.484 173.627V180.676C183.865 180.676 184.146 180.761 184.328 180.931C184.51 181.095 184.6 181.309 184.6 181.572C184.6 181.836 184.507 182.053 184.319 182.223C184.138 182.393 183.859 182.478 183.484 182.478V183.198C183.865 183.198 184.146 183.283 184.328 183.453C184.51 183.623 184.6 183.84 184.6 184.104C184.6 184.367 184.507 184.584 184.319 184.754C184.138 184.918 183.83 185 183.396 185H180.979C180.546 185 180.235 184.918 180.048 184.754C179.866 184.584 179.775 184.364 179.775 184.095C179.775 183.831 179.866 183.617 180.048 183.453C180.235 183.283 180.546 183.198 180.979 183.198H181.682V182.478H176.787V180.975L181.102 173.627H183.484ZM181.682 180.676V176.246L179.072 180.676H181.682Z" fill="#87BCC0"/>
</svg>
